<svg width="64" height="64" viewBox="0 0 64 64" fill="none" xmlns="http://www.w3.org/2000/svg">
<path d="M15 56C15.5933 56 16.1734 55.8241 16.6667 55.4944C17.1601 55.1648 17.5446 54.6962 17.7716 54.1481C17.9987 53.5999 18.0581 52.9967 17.9424 52.4147C17.8266 51.8328 17.5409 51.2982 17.1213 50.8787C16.7018 50.4591 16.1672 50.1734 15.5853 50.0576C15.0033 49.9419 14.4001 50.0013 13.8519 50.2284C13.3038 50.4554 12.8352 50.8399 12.5056 51.3333C12.1759 51.8266 12 52.4067 12 53C12.0009 53.7954 12.3173 54.5579 12.8797 55.1203C13.4421 55.6828 14.2046 55.9991 15 56ZM15 52C15.1978 52 15.3911 52.0587 15.5556 52.1685C15.72 52.2784 15.8482 52.4346 15.9239 52.6173C15.9996 52.8 16.0194 53.0011 15.9808 53.1951C15.9422 53.3891 15.847 53.5673 15.7071 53.7071C15.5673 53.847 15.3891 53.9422 15.1951 53.9808C15.0011 54.0194 14.8 53.9996 14.6173 53.9239C14.4346 53.8482 14.2784 53.72 14.1685 53.5556C14.0586 53.3911 14 53.1978 14 53C14.0003 52.7349 14.1057 52.4807 14.2932 52.2932C14.4807 52.1058 14.7349 52.0003 15 52Z" fill="#41414A"/>
<path d="M50 50C49.4067 50 48.8266 50.1759 48.3333 50.5056C47.8399 50.8352 47.4554 51.3038 47.2284 51.852C47.0013 52.4001 46.9419 53.0033 47.0576 53.5853C47.1734 54.1672 47.4591 54.7018 47.8787 55.1213C48.2982 55.5409 48.8328 55.8266 49.4147 55.9424C49.9967 56.0581 50.5999 55.9987 51.1481 55.7716C51.6962 55.5446 52.1648 55.1601 52.4944 54.6667C52.8241 54.1734 53 53.5933 53 53C52.9991 52.2046 52.6828 51.4421 52.1203 50.8797C51.5579 50.3173 50.7954 50.0009 50 50ZM50 54C49.8022 54 49.6089 53.9414 49.4444 53.8315C49.28 53.7216 49.1518 53.5654 49.0761 53.3827C49.0004 53.2 48.9806 52.9989 49.0192 52.8049C49.0578 52.6109 49.153 52.4327 49.2929 52.2929C49.4327 52.153 49.6109 52.0578 49.8049 52.0192C49.9989 51.9806 50.2 52.0004 50.3827 52.0761C50.5654 52.1518 50.7216 52.28 50.8315 52.4444C50.9414 52.6089 51 52.8022 51 53C50.9997 53.2651 50.8943 53.5193 50.7068 53.7068C50.5193 53.8943 50.2651 53.9997 50 54Z" fill="#41414A"/>
<path d="M60 20H55.0762C54.5773 18.7003 53.8872 17.4823 53.0288 16.3862L54.7075 14.7075C54.8004 14.6146 54.8741 14.5043 54.9244 14.3829C54.9747 14.2615 55.0006 14.1314 55.0006 14C55.0006 13.8686 54.9747 13.7385 54.9244 13.6171C54.8741 13.4957 54.8004 13.3854 54.7075 13.2925C54.6146 13.1996 54.5043 13.1259 54.3829 13.0756C54.2615 13.0253 54.1314 12.9994 54 12.9994C53.8686 12.9994 53.7385 13.0253 53.6171 13.0756C53.4957 13.1259 53.3854 13.1996 53.2925 13.2925L51.685 14.9C49.3315 12.6353 46.258 11.268 43 11.0363V10H45C45.2652 10 45.5196 9.89464 45.7071 9.70711C45.8946 9.51957 46 9.26522 46 9V6C46 5.73478 45.8946 5.48043 45.7071 5.29289C45.5196 5.10536 45.2652 5 45 5H39C38.7348 5 38.4804 5.10536 38.2929 5.29289C38.1054 5.48043 38 5.73478 38 6V9C38 9.26522 38.1054 9.51957 38.2929 9.70711C38.4804 9.89464 38.7348 10 39 10H41V11.0363C38.3438 11.23 35.7977 12.1758 33.6592 13.7631C31.5207 15.3504 29.8782 17.5137 28.9237 20H23C22.7348 20 22.4804 20.1054 22.2929 20.2929C22.1054 20.4804 22 20.7348 22 21V24H12C11.8237 24.0001 11.6505 24.0468 11.498 24.1352C11.3455 24.2237 11.219 24.3508 11.1313 24.5037L3.13125 38.5037C3.04516 38.655 2.99992 38.826 3 39V53C3 53.2652 3.10536 53.5196 3.29289 53.7071C3.48043 53.8946 3.73478 54 4 54H9.085C9.2229 54.8092 9.52506 55.5816 9.97287 56.2695C10.4207 56.9574 11.0046 57.5464 11.6888 58H2C1.73478 58 1.48043 58.1054 1.29289 58.2929C1.10536 58.4804 1 58.7348 1 59C1 59.2652 1.10536 59.5196 1.29289 59.7071C1.48043 59.8946 1.73478 60 2 60H58C58.2652 60 58.5196 59.8946 58.7071 59.7071C58.8946 59.5196 59 59.2652 59 59C59 58.7348 58.8946 58.4804 58.7071 58.2929C58.5196 58.1054 58.2652 58 58 58H53.3112C53.9954 57.5464 54.5793 56.9574 55.0271 56.2695C55.4749 55.5816 55.7771 54.8092 55.915 54H60C60.2652 54 60.5196 53.8946 60.7071 53.7071C60.8946 53.5196 61 53.2652 61 53V21C61 20.7348 60.8946 20.4804 60.7071 20.2929C60.5196 20.1054 60.2652 20 60 20ZM40 8V7H44V8H40ZM42 13C44.3734 13 46.6935 13.7038 48.6668 15.0224C50.6402 16.3409 52.1783 18.2151 53.0866 20.4078C53.9948 22.6005 54.2324 25.0133 53.7694 27.3411C53.3064 29.6689 52.1635 31.8071 50.4853 33.4853C48.8071 35.1635 46.6689 36.3064 44.3411 36.7694C42.0133 37.2324 39.6005 36.9948 37.4078 36.0866C35.2151 35.1783 33.3409 33.6402 32.0224 31.6668C30.7038 29.6935 30 27.3734 30 25C30.0038 21.8186 31.2693 18.7685 33.5189 16.5189C35.7685 14.2693 38.8186 13.0038 42 13ZM10.8663 29H18V38H5.72375L10.8663 29ZM5 43H7C7.26522 43 7.51957 43.1054 7.70711 43.2929C7.89464 43.4804 8 43.7348 8 44C8 44.2652 7.89464 44.5196 7.70711 44.7071C7.51957 44.8946 7.26522 45 7 45H5V43ZM9.085 52H5V47H7C7.79565 47 8.55871 46.6839 9.12132 46.1213C9.68393 45.5587 10 44.7957 10 44C10 43.2043 9.68393 42.4413 9.12132 41.8787C8.55871 41.3161 7.79565 41 7 41H5V40H19C19.2652 40 19.5196 39.8946 19.7071 39.7071C19.8946 39.5196 20 39.2652 20 39V28C20 27.7348 19.8946 27.4804 19.7071 27.2929C19.5196 27.1054 19.2652 27 19 27H12.0087L12.58 26H22V52H20.915C20.6789 50.602 19.9553 49.3328 18.8725 48.4176C17.7897 47.5023 16.4178 47.0001 15 47.0001C13.5822 47.0001 12.2103 47.5023 11.1275 48.4176C10.0447 49.3328 9.32108 50.602 9.085 52ZM15 57C14.2089 57 13.4355 56.7654 12.7777 56.3259C12.1199 55.8864 11.6072 55.2616 11.3045 54.5307C11.0017 53.7998 10.9225 52.9956 11.0769 52.2196C11.2312 51.4437 11.6122 50.731 12.1716 50.1716C12.731 49.6122 13.4437 49.2312 14.2196 49.0769C14.9956 48.9225 15.7998 49.0017 16.5307 49.3045C17.2616 49.6072 17.8864 50.1199 18.3259 50.7777C18.7654 51.4355 19 52.2089 19 53C18.999 54.0606 18.5773 55.0774 17.8273 55.8273C17.0774 56.5773 16.0606 56.999 15 57ZM18.3113 58C18.9954 57.5464 19.5793 56.9574 20.0271 56.2695C20.4749 55.5816 20.7771 54.8092 20.915 54H44.085C44.2229 54.8092 44.5251 55.5816 44.9729 56.2695C45.4207 56.9574 46.0046 57.5464 46.6888 58H18.3113ZM50 57C49.2089 57 48.4355 56.7654 47.7777 56.3259C47.1199 55.8864 46.6072 55.2616 46.3045 54.5307C46.0017 53.7998 45.9225 52.9956 46.0769 52.2196C46.2312 51.4437 46.6122 50.731 47.1716 50.1716C47.731 49.6122 48.4437 49.2312 49.2196 49.0769C49.9956 48.9225 50.7998 49.0017 51.5307 49.3045C52.2616 49.6072 52.8864 50.1199 53.3259 50.7777C53.7654 51.4355 54 52.2089 54 53C53.999 54.0606 53.5773 55.0774 52.8273 55.8273C52.0774 56.5773 51.0606 56.999 50 57ZM59 52H55.915C55.6789 50.602 54.9553 49.3328 53.8725 48.4176C52.7897 47.5023 51.4178 47.0001 50 47.0001C48.5822 47.0001 47.2103 47.5023 46.1275 48.4176C45.0447 49.3328 44.3211 50.602 44.085 52H24V45H59V52ZM59 43H24V22H28.325C27.8766 24.0446 27.8924 26.1637 28.3712 28.2014C28.85 30.2391 29.7796 32.1435 31.0916 33.7744C32.4036 35.4053 34.0647 36.7213 35.9525 37.6255C37.8403 38.5297 39.9068 38.9991 42 38.9991C44.0932 38.9991 46.1597 38.5297 48.0475 37.6255C49.9353 36.7213 51.5964 35.4053 52.9084 33.7744C54.2204 32.1435 55.15 30.2391 55.6288 28.2014C56.1076 26.1637 56.1234 24.0446 55.675 22H59V43Z" fill="#41414A"/>
<path d="M42 36C44.1756 36 46.3023 35.3549 48.1113 34.1462C49.9202 32.9375 51.3301 31.2195 52.1627 29.2095C52.9952 27.1995 53.2131 24.9878 52.7886 22.854C52.3642 20.7202 51.3165 18.7602 49.7782 17.2218C48.2398 15.6835 46.2798 14.6358 44.146 14.2114C42.0122 13.7869 39.8005 14.0048 37.7905 14.8373C35.7805 15.6699 34.0625 17.0798 32.8538 18.8887C31.6451 20.6977 31 22.8244 31 25C31.0033 27.9164 32.1633 30.7123 34.2255 32.7745C36.2877 34.8367 39.0836 35.9967 42 36ZM42 16C43.78 16 45.5201 16.5278 47.0001 17.5168C48.4802 18.5057 49.6337 19.9113 50.3149 21.5559C50.9961 23.2004 51.1743 25.01 50.8271 26.7558C50.4798 28.5017 49.6226 30.1053 48.364 31.364C47.1053 32.6226 45.5016 33.4798 43.7558 33.8271C42.01 34.1743 40.2004 33.9961 38.5558 33.3149C36.9113 32.6337 35.5057 31.4802 34.5168 30.0001C33.5278 28.5201 33 26.78 33 25C33.0027 22.6139 33.9518 20.3263 35.639 18.639C37.3262 16.9518 39.6139 16.0027 42 16Z" fill="#41414A"/>
<path d="M43.2929 27.7071C43.3857 27.8 43.496 27.8736 43.6173 27.9239C43.7386 27.9742 43.8687 28 44 28C44.1313 28 44.2614 27.9742 44.3827 27.9239C44.504 27.8736 44.6143 27.8 44.7071 27.7071C44.8 27.6143 44.8736 27.504 44.9239 27.3827C44.9742 27.2614 45 27.1313 45 27C45 26.8687 44.9742 26.7386 44.9239 26.6173C44.8736 26.496 44.8 26.3857 44.7071 26.2929L43 24.5859V21C43 20.7348 42.8946 20.4804 42.7071 20.2929C42.5196 20.1054 42.2652 20 42 20C41.7348 20 41.4804 20.1054 41.2929 20.2929C41.1054 20.4804 41 20.7348 41 21V25C41 25.1313 41.0259 25.2614 41.0761 25.3827C41.1264 25.504 41.2 25.6143 41.2929 25.7071L43.2929 27.7071Z" fill="#41414A"/>
<path d="M62 58H61C60.7348 58 60.4804 58.1054 60.2929 58.2929C60.1054 58.4804 60 58.7348 60 59C60 59.2652 60.1054 59.5196 60.2929 59.7071C60.4804 59.8946 60.7348 60 61 60H62C62.2652 60 62.5196 59.8946 62.7071 59.7071C62.8946 59.5196 63 59.2652 63 59C63 58.7348 62.8946 58.4804 62.7071 58.2929C62.5196 58.1054 62.2652 58 62 58Z" fill="#41414A"/>
</svg>
