<svg width="35" height="35" viewBox="0 0 35 35" fill="none" xmlns="http://www.w3.org/2000/svg">
<path d="M31.7302 21.2794C31.5019 21.2685 31.2695 21.3177 31.0562 21.4285L26.4679 23.8183H19.2027C17.6195 23.8183 16.0691 24.2654 14.7292 25.1089L13.7066 25.7515C13.3156 25.9976 12.8617 26.1288 12.3982 26.1288H12.2683V27.2048C12.2691 27.2048 12.2697 27.2047 12.2705 27.2047V29.2175C12.2697 29.2175 12.2691 29.2173 12.2683 29.2173V30.4505L22.0095 30.1511C22.8449 30.0964 23.6488 29.8161 24.3365 29.3376L32.433 23.1128C32.6982 22.9283 32.7843 22.6699 32.7912 22.421C32.8062 21.8263 32.325 21.3054 31.7302 21.2794Z" fill="#FCE8CB"/>
<path d="M31.7399 21.0746C31.4717 21.0611 31.2029 21.1211 30.9615 21.2466L26.4177 23.6134H19.2028C17.5786 23.6134 15.9939 24.0706 14.6203 24.9354L13.5974 25.578C13.2379 25.8043 12.8233 25.9239 12.3982 25.9239H12.2683C12.155 25.9239 12.0632 26.0157 12.0632 26.129V27.205C12.0632 27.3183 12.155 27.41 12.2683 27.41C12.2723 27.41 12.2768 27.4099 12.2812 27.4096C12.3896 27.404 12.4756 27.3145 12.4756 27.2048C12.4756 27.1946 12.4749 27.1846 12.4734 27.1746V26.333C12.9494 26.3196 13.4121 26.1793 13.8156 25.9253L14.8385 25.2827C16.1467 24.459 17.6558 24.0237 19.2027 24.0237H26.4679C26.5009 24.0237 26.5334 24.0157 26.5627 24.0006L31.1508 21.6108C31.3279 21.519 31.5249 21.4755 31.7213 21.4846C32.2024 21.5057 32.5985 21.9323 32.5862 22.4158C32.5798 22.6496 32.4915 22.8229 32.3081 22.9507L24.2194 29.1698C23.564 29.6259 22.7952 29.8946 22.0034 29.9466L12.4735 30.2396V29.2482C12.475 29.2384 12.4757 29.2283 12.4757 29.218C12.4757 29.1085 12.3899 29.019 12.2817 29.0132C12.1574 29.0053 12.0634 29.1004 12.0634 29.2179V30.4511C12.0634 30.5066 12.0858 30.5596 12.1257 30.5983C12.164 30.6355 12.2153 30.6562 12.2684 30.6562H12.2747L22.0231 30.3563C22.8966 30.2992 23.737 30.0054 24.4616 29.5009L32.5503 23.2818C32.832 23.0856 32.9863 22.7902 32.9962 22.4269C33.014 21.7242 32.4383 21.1051 31.7399 21.0746Z" fill="#3A312A"/>
<path d="M26.6728 23.9248C26.6298 23.82 26.5099 23.7699 26.4054 23.8129C26.3005 23.8558 26.2505 23.9756 26.2934 24.0804C26.452 24.4672 26.2256 24.9341 25.92 25.1954C25.5634 25.5004 25.0673 25.6484 24.6294 25.7791C23.641 26.0742 22.7447 26.2559 21.7959 26.4484C20.8792 26.6343 19.9315 26.8265 18.762 27.1418C18.6526 27.1713 18.5879 27.2839 18.6173 27.3932C18.6419 27.4847 18.7248 27.545 18.8152 27.545C18.8328 27.545 18.8508 27.5427 18.8687 27.5379C20.0257 27.226 20.967 27.035 21.8774 26.8505C22.8355 26.6562 23.7406 26.4726 24.7467 26.1723C25.2236 26.0299 25.764 25.8686 26.1866 25.5072C26.5913 25.1609 26.916 24.5181 26.6728 23.9248Z" fill="#3A312A"/>
<path d="M2.20862 23.9526H8.66858V32.7569H2.20862V23.9526Z" fill="#F16C7A"/>
<path d="M8.66858 23.7476H2.20862C2.09528 23.7476 2.00354 23.8393 2.00354 23.9526V32.7569C2.00354 32.8703 2.09528 32.962 2.20862 32.962H3.98254C4.09588 32.962 4.18762 32.8703 4.18762 32.7569C4.18762 32.6436 4.09588 32.5518 3.98254 32.5518H2.4137V24.1577H8.4635V32.5518H5.86133C5.74799 32.5518 5.65625 32.6436 5.65625 32.7569C5.65625 32.8703 5.74799 32.962 5.86133 32.962H8.66858C8.78192 32.962 8.87366 32.8703 8.87366 32.7569V23.9526C8.87366 23.8393 8.78178 23.7476 8.66858 23.7476Z" fill="#3A312A"/>
<path d="M11.1763 23.9526H8.66858V32.7569H11.1763C11.7796 32.7569 12.2688 32.2677 12.2688 31.6644V25.0452C12.2688 24.4417 11.7796 23.9526 11.1763 23.9526Z" fill="#8AC6DD"/>
<path d="M12.2688 27.41C12.3821 27.41 12.4739 27.3182 12.4739 27.2049V25.0452C12.4739 24.3297 11.8917 23.7476 11.1763 23.7476H8.66858C8.55524 23.7476 8.4635 23.8393 8.4635 23.9526V32.7569C8.4635 32.8703 8.55524 32.962 8.66858 32.962H11.1763C11.8917 32.962 12.4739 32.3798 12.4739 31.6644V29.2175C12.4739 29.1042 12.3821 29.0125 12.2688 29.0125C12.1555 29.0125 12.0637 29.1042 12.0637 29.2175V31.6644C12.0637 32.1537 11.6656 32.5518 11.1763 32.5518H8.87366V24.1577H11.1763C11.6656 24.1577 12.0637 24.5558 12.0637 25.0452V27.2049C12.0637 27.3182 12.1556 27.41 12.2688 27.41Z" fill="#3A312A"/>
<path d="M10.5939 31.7435C11.0431 31.6707 11.3483 31.2475 11.2754 30.7982C11.2026 30.349 10.7794 30.0438 10.3302 30.1167C9.88091 30.1895 9.57576 30.6127 9.64859 31.062C9.72141 31.5112 10.1446 31.8164 10.5939 31.7435Z" fill="#87796F"/>
<path d="M10.4685 29.9017C9.90103 29.9017 9.43933 30.3634 9.43933 30.931C9.43933 31.4985 9.90103 31.9602 10.4685 31.9602C11.0361 31.9602 11.4978 31.4985 11.4978 30.931C11.4978 30.3634 11.0361 29.9017 10.4685 29.9017ZM10.4685 31.55C10.1272 31.55 9.84949 31.2723 9.84949 30.931C9.84949 30.5896 10.1272 30.3119 10.4685 30.3119C10.8099 30.3119 11.0876 30.5896 11.0876 30.931C11.0876 31.2723 10.8099 31.55 10.4685 31.55Z" fill="#3A312A"/>
<path d="M31.7221 21.4844C31.5239 21.4749 31.3256 21.5186 31.1506 21.6102L30.5737 21.911C30.668 22.0587 30.7213 22.2323 30.7172 22.4155C30.7118 22.6493 30.6229 22.8229 30.4397 22.9501L22.35 29.1694C21.3834 29.8474 20.0858 29.9856 20.088 30.0047L22.0041 29.946C22.7944 29.8954 23.5627 29.626 24.219 29.1694L32.3086 22.9501C32.4918 22.8229 32.5793 22.6493 32.5862 22.4155C32.5985 21.9315 32.2034 21.505 31.7221 21.4844Z" fill="#DECAAD"/>
<path d="M6.55504 3.6084C6.42187 5.18942 4.77441 5.43907 4.77441 5.43907C6.18904 5.50565 6.5415 7.3612 6.5415 7.3612C6.57172 6.03817 8.36273 5.41951 8.36273 5.41951C7.02111 5.33912 6.55504 3.6084 6.55504 3.6084Z" fill="#D6DF58"/>
<path d="M8.37517 5.21476C7.19871 5.14435 6.75751 3.57086 6.75314 3.55486C6.72716 3.45889 6.63693 3.39654 6.53671 3.4042C6.43759 3.41322 6.35925 3.49197 6.35091 3.59109C6.2332 4.98781 4.80407 5.22693 4.74378 5.23636C4.63946 5.25209 4.56427 5.34437 4.56974 5.44978C4.57521 5.55506 4.65956 5.639 4.76497 5.64406C5.99913 5.70203 6.33697 7.38285 6.34025 7.3998C6.35898 7.49701 6.44402 7.56619 6.5415 7.56619C6.54724 7.56619 6.55298 7.56605 6.55872 7.5655C6.66318 7.55675 6.74425 7.47076 6.74671 7.36603C6.77324 6.20269 8.41345 5.61918 8.43013 5.61343C8.52242 5.58131 8.57943 5.48847 8.56603 5.39154C8.5525 5.29461 8.47279 5.22064 8.37517 5.21476ZM6.52044 6.62925C6.33492 6.20132 6.01335 5.68494 5.48316 5.41574C5.88388 5.22365 6.35939 4.88076 6.60452 4.2848C6.81658 4.70467 7.17861 5.22543 7.7438 5.47726C7.33269 5.70134 6.79744 6.07937 6.52044 6.62925Z" fill="#3A312A"/>
<path d="M3.58855 5.93005C3.49436 7.04828 2.3291 7.22478 2.3291 7.22478C3.32961 7.27181 3.57898 8.58431 3.57898 8.58431C3.60031 7.64861 4.86715 7.21097 4.86715 7.21097C3.91805 7.15423 3.58855 5.93005 3.58855 5.93005Z" fill="#D6DF58"/>
<path d="M4.87957 7.0063C4.09111 6.95913 3.78951 5.88712 3.78664 5.87632C3.76066 5.78035 3.67029 5.71691 3.57035 5.72566C3.47109 5.73454 3.39275 5.81343 3.38441 5.91269C3.30525 6.85208 2.33906 7.0156 2.29859 7.02202C2.19427 7.03775 2.11908 7.13003 2.12455 7.23544C2.13002 7.34071 2.21437 7.42466 2.31978 7.42972C3.14488 7.46855 3.37566 8.61151 3.37785 8.62272C3.39631 8.7202 3.48162 8.78952 3.5791 8.78952C3.58484 8.78952 3.59045 8.78938 3.59619 8.78884C3.70078 8.78022 3.78185 8.69395 3.78431 8.58909C3.80209 7.80857 4.92332 7.40866 4.93453 7.40483C5.02695 7.37284 5.0841 7.28001 5.0707 7.18308C5.05703 7.08614 4.97718 7.01218 4.87957 7.0063ZM3.56898 7.9353C3.44265 7.67759 3.24906 7.39568 2.96099 7.21343C3.21474 7.07111 3.46644 6.85386 3.62695 6.54132C3.77146 6.79753 3.98994 7.08191 4.30248 7.25554C4.04968 7.40593 3.75711 7.63001 3.56898 7.9353Z" fill="#3A312A"/>
<path d="M3.5835 2.2854C3.49367 3.40403 2.3291 3.58519 2.3291 3.58519C3.32975 3.62839 3.58432 4.93993 3.58432 4.93993C3.60195 4.00409 4.86715 3.56153 4.86715 3.56153C3.91777 3.50835 3.5835 2.2854 3.5835 2.2854Z" fill="#D6DF58"/>
<path d="M4.87832 3.3567C4.08986 3.31254 3.78402 2.2419 3.78101 2.23109C3.75463 2.13512 3.66398 2.07182 3.56404 2.08125C3.46492 2.09055 3.38672 2.16971 3.37879 2.2691C3.30332 3.20877 2.33767 3.37611 2.2972 3.38268C2.19302 3.39895 2.1181 3.49151 2.12398 3.59678C2.12972 3.70205 2.21463 3.78572 2.3199 3.79024C3.14513 3.82592 3.38043 4.96793 3.38261 4.97901C3.40148 5.07608 3.48652 5.14498 3.58373 5.14498C3.58961 5.14498 3.59562 5.14471 3.60164 5.1443C3.70623 5.13527 3.78703 5.04873 3.78894 4.94387C3.80371 4.1632 4.92343 3.75906 4.93451 3.75524C5.02693 3.72297 5.08353 3.62986 5.06986 3.53293C5.05619 3.43586 4.97593 3.36217 4.87832 3.3567ZM3.57156 4.29076C3.44414 4.03346 3.24945 3.75236 2.9607 3.57135C3.2139 3.42807 3.46464 3.20986 3.62392 2.89651C3.76939 3.15217 3.98896 3.43572 4.30232 3.60813C4.04994 3.75961 3.75845 3.98479 3.57156 4.29076Z" fill="#3A312A"/>
<path d="M23.04 3.07825C22.4728 2.51101 21.7053 2.21446 20.8802 2.2455C20.0727 2.27503 19.3045 2.61491 18.717 3.20239C18.2978 3.62157 17.8501 4.29737 17.5002 5.01665C17.1503 4.29751 16.7026 3.62171 16.2834 3.20239C15.6958 2.61478 14.9276 2.27503 14.1202 2.2455C13.2951 2.21446 12.5276 2.51101 11.9603 3.07825C11.3931 3.6455 11.0974 4.41263 11.1276 5.23814C11.1571 6.0456 11.497 6.81382 12.0846 7.4013C12.6539 7.9706 13.6963 8.59322 14.6783 8.95074C15.2897 9.17332 15.8356 9.28433 16.306 9.28433C16.7875 9.28433 17.1886 9.16621 17.5003 8.93406C17.8122 9.16635 18.2132 9.28433 18.6947 9.28433C19.165 9.28433 19.7108 9.17332 20.3223 8.95074C21.3044 8.59336 22.3467 7.97074 22.916 7.4013C23.5036 6.81369 23.8435 6.04546 23.8731 5.23814C23.903 4.41249 23.6073 3.6455 23.04 3.07825ZM16.8396 7.59367C16.8234 7.71986 16.7879 7.80873 16.7394 7.8574C16.5835 8.01339 16.0128 8.03459 15.1287 7.71275C14.3235 7.41976 13.4548 6.90857 13.016 6.4697C12.6645 6.1182 12.4613 5.66361 12.4439 5.18988C12.4272 4.73433 12.5862 4.31515 12.8917 4.00972C13.1826 3.71878 13.5766 3.5606 14.007 3.5606C14.0286 3.5606 14.0502 3.56101 14.072 3.56183C14.5458 3.57919 15.0003 3.78235 15.3518 4.13386C15.7907 4.57273 16.3019 5.44158 16.5948 6.24658C16.7417 6.65017 16.8165 6.98759 16.8403 7.25091C16.8337 7.36945 16.8329 7.48402 16.8396 7.59367ZM21.9843 6.4697C21.5454 6.90857 20.6767 7.41962 19.8716 7.71275C18.9874 8.03459 18.4168 8.01339 18.2609 7.8574C18.2122 7.80873 18.1768 7.71986 18.1607 7.59367C18.1674 7.48416 18.1666 7.36945 18.1601 7.25105C18.1839 6.98773 18.2587 6.65031 18.4055 6.24671C18.6985 5.44158 19.2097 4.57286 19.6486 4.134C20.0001 3.78249 20.4545 3.57933 20.9284 3.56196C20.95 3.56114 20.9718 3.56073 20.9932 3.56073C21.4236 3.56073 21.8176 3.71878 22.1086 4.00985C22.414 4.31528 22.573 4.73446 22.5563 5.19001C22.5388 5.66374 22.3358 6.1182 21.9843 6.4697Z" fill="#D7E057"/>
<path d="M20.9931 3.35562C20.9692 3.35562 20.9453 3.35603 20.9207 3.35685C20.395 3.37626 19.8916 3.60062 19.5035 3.9889C19.0456 4.44677 18.5148 5.34624 18.2127 6.1764C18.07 6.56837 17.9836 6.92371 17.9557 7.23255C17.9548 7.2424 17.9547 7.25238 17.9553 7.26222C17.9615 7.37761 17.9618 7.48494 17.9559 7.58119C17.9551 7.59404 17.9555 7.60689 17.9572 7.61974C17.979 7.79023 18.0324 7.91902 18.1158 8.00242C18.2291 8.11589 18.4288 8.17195 18.6915 8.17195C19.0236 8.17195 19.4562 8.08226 19.9416 7.90562C20.7718 7.60347 21.6714 7.07273 22.1291 6.61486C22.5174 6.22671 22.7418 5.72331 22.7611 5.19749C22.7798 4.68439 22.5995 4.21107 22.2533 3.86476C21.9253 3.53636 21.4777 3.35562 20.9931 3.35562ZM21.8393 6.32474C21.4193 6.74474 20.5813 7.23624 19.8014 7.52007C18.9283 7.83781 18.4726 7.77205 18.4061 7.71271C18.3989 7.70464 18.3788 7.66677 18.3664 7.58515C18.3718 7.48234 18.3716 7.37392 18.3655 7.25511C18.3914 6.98824 18.4716 6.66408 18.5981 6.31681C18.8819 5.53683 19.3734 4.69888 19.7934 4.27888C20.1082 3.96415 20.5138 3.78232 20.9352 3.76673C21.3321 3.75251 21.6998 3.89101 21.9634 4.1546C22.2281 4.41943 22.3658 4.78433 22.3513 5.18232C22.336 5.60423 22.154 6.00988 21.8393 6.32474ZM17.0444 7.23255C17.0165 6.92371 16.9301 6.56851 16.7874 6.1764C16.4853 5.34624 15.9545 4.44663 15.4966 3.9889C15.1085 3.60076 14.6051 3.37626 14.0787 3.35685C13.5675 3.33962 13.0909 3.52009 12.7465 3.86462C12.4004 4.21093 12.22 4.68425 12.2388 5.19736C12.258 5.72318 12.4824 6.22644 12.8707 6.61472C13.3286 7.07259 14.228 7.60333 15.0583 7.90548C15.5439 8.08212 15.9765 8.17181 16.3085 8.17181C16.5711 8.17181 16.7709 8.11576 16.8842 8.00228C16.9676 7.91888 17.0211 7.79009 17.0429 7.6196C17.0446 7.60689 17.045 7.5939 17.0442 7.58105C17.0383 7.4848 17.0386 7.37761 17.0448 7.26208C17.0455 7.25224 17.0454 7.2424 17.0444 7.23255ZM16.6337 7.58515C16.6213 7.66664 16.6012 7.70464 16.5946 7.71203C16.5275 7.77191 16.072 7.83781 15.1987 7.52007C14.4187 7.23624 13.5808 6.74474 13.1608 6.32474C12.8461 6.01001 12.6642 5.60423 12.6488 5.18245C12.6343 4.78447 12.772 4.41943 13.0367 4.15474C13.2874 3.904 13.6321 3.76578 14.007 3.76578C14.0262 3.76578 14.0455 3.76605 14.0642 3.76673C14.4862 3.78218 14.8918 3.96415 15.2065 4.27888C15.6265 4.69888 16.118 5.53683 16.4019 6.31681C16.5283 6.66421 16.6086 6.98824 16.6344 7.25511C16.6285 7.37392 16.6283 7.48234 16.6337 7.58515ZM23.185 2.93316C22.5762 2.32435 21.7556 2.00771 20.8727 2.04038C20.0133 2.07169 19.1962 2.4329 18.572 3.0573C18.2119 3.41728 17.8314 3.95513 17.5001 4.56749C17.1688 3.95513 16.7884 3.41728 16.4282 3.0573C15.804 2.4329 14.9868 2.07183 14.1277 2.04038C13.2447 2.00812 12.4239 2.32421 11.8151 2.93316C11.2071 3.54101 10.8899 4.36228 10.9223 5.24562C10.9539 6.1049 11.315 6.92193 11.9392 7.54632C12.5278 8.1349 13.6002 8.77679 14.6078 9.14347C15.8305 9.58849 16.8236 9.60339 17.5 9.18203C17.8276 9.38615 18.2286 9.48937 18.6944 9.48937C19.1904 9.48937 19.7616 9.37302 20.3921 9.14347C21.3996 8.77679 22.472 8.13503 23.0607 7.54632C23.685 6.92206 24.0461 6.10503 24.0777 5.24562C24.1102 4.36228 23.793 3.54101 23.185 2.93316ZM22.7709 7.25634C22.2206 7.80636 21.2085 8.40997 20.252 8.75792C19.0977 9.17806 18.1825 9.1864 17.6226 8.76941C17.5862 8.74234 17.5432 8.7288 17.5001 8.7288C17.457 8.7288 17.414 8.74234 17.3776 8.76941C16.8179 9.1864 15.9026 9.17806 14.7482 8.75792C13.7918 8.40984 12.7796 7.80636 12.2293 7.25634C11.6786 6.7055 11.3599 5.98609 11.3323 5.23072C11.3042 4.46263 11.5787 3.74964 12.1052 3.22328C12.6325 2.69595 13.3447 2.42115 14.1126 2.4504C14.8681 2.47802 15.5876 2.79658 16.1383 3.34742C16.5305 3.73966 16.9707 4.39714 17.3157 5.1063C17.35 5.17685 17.4215 5.22169 17.5001 5.22169C17.5787 5.22169 17.6502 5.17685 17.6845 5.1063C18.0295 4.39714 18.4697 3.73966 18.862 3.34742C19.4128 2.79658 20.1322 2.47802 20.8879 2.4504C21.6566 2.42115 22.3679 2.69609 22.895 3.22328C23.4215 3.74978 23.6961 4.46263 23.6679 5.23072C23.6403 5.98609 23.3216 6.70537 22.7709 7.25634Z" fill="#3A312A"/>
<path d="M10.5287 12.5457V21.5117C10.5287 21.9492 10.8833 22.3038 11.3208 22.3038H23.6791C24.1166 22.3038 24.4712 21.9492 24.4712 21.5117V12.5457H10.5287Z" fill="#8AC5DC"/>
<path d="M24.4712 12.3406H10.5287C10.4153 12.3406 10.3236 12.4323 10.3236 12.5457V21.5117C10.3236 22.0614 10.771 22.5088 11.3208 22.5088H23.6791C24.229 22.5088 24.6763 22.0614 24.6763 21.5117V12.5457C24.6763 12.4325 24.5845 12.3406 24.4712 12.3406ZM24.2662 21.5117C24.2662 21.8353 24.0029 22.0986 23.6791 22.0986H11.3208C10.9971 22.0986 10.7338 21.8353 10.7338 21.5117V12.7507H24.266V21.5117H24.2662Z" fill="#3A312A"/>
<path d="M24.9691 8.90552H10.0309C9.59342 8.90552 9.23877 9.26017 9.23877 9.69767V11.7538C9.23877 12.1913 9.59342 12.5459 10.0309 12.5459H24.9691C25.4066 12.5459 25.7612 12.1913 25.7612 11.7538V9.69753C25.7612 9.26017 25.4066 8.90552 24.9691 8.90552Z" fill="#8AC5DC"/>
<path d="M24.9691 8.70044H10.0309C9.48104 8.70044 9.03369 9.14778 9.03369 9.69767V11.7538C9.03369 12.3037 9.48104 12.751 10.0309 12.751H24.9691C25.519 12.751 25.9663 12.3037 25.9663 11.7538V9.69767C25.9663 9.14778 25.519 8.70044 24.9691 8.70044ZM25.5562 11.7536C25.5562 12.0774 25.2928 12.3407 24.9691 12.3407H10.0309C9.70731 12.3407 9.44385 12.0774 9.44385 11.7536V9.69767C9.44385 9.37392 9.70717 9.1106 10.0309 9.1106H24.9691C25.2928 9.1106 25.5562 9.37392 25.5562 9.69767V11.7536Z" fill="#3A312A"/>
<path d="M16.7314 8.90552V22.3039H18.2684V17.4459V15.4952V8.90552H16.7314Z" fill="#D7E057"/>
<path d="M18.2684 15.7003C18.3818 15.7003 18.4735 15.6086 18.4735 15.4952V8.90552C18.4735 8.79218 18.3818 8.70044 18.2684 8.70044H16.7314C16.6181 8.70044 16.5264 8.79218 16.5264 8.90552V22.3039C16.5264 22.4173 16.6181 22.509 16.7314 22.509H18.2684C18.3818 22.509 18.4735 22.4173 18.4735 22.3039V17.4459C18.4735 17.3326 18.3818 17.2408 18.2684 17.2408C18.1551 17.2408 18.0634 17.3326 18.0634 17.4459V22.0989H16.9365V9.1106H18.0634V15.4952C18.0634 15.6086 18.1551 15.7003 18.2684 15.7003Z" fill="#3A312A"/>
</svg>
