<svg width="30" height="30" viewBox="0 0 30 30" fill="none" xmlns="http://www.w3.org/2000/svg">
<!--<path fill-rule="evenodd" clip-rule="evenodd" d="M15 30C23.2843 30 30 23.2843 30 15C30 6.71573 23.2843 0 15 0C6.71573 0 0 6.71573 0 15C0 23.2843 6.71573 30 15 30Z" fill="#F2AA07"/>-->
<path fill-rule="evenodd" clip-rule="evenodd" d="M16.1992 18.4977C16.2379 17.9021 16.5064 16.975 17.1776 17.4806C17.5831 17.7869 17.9048 18.2306 18.2692 18.6201C18.6248 18.9995 19.0492 19.3309 19.8398 19.3106C20.3087 19.2985 21.6553 19.343 22.0061 19.2153C23.0663 18.8306 21.1879 17.0727 20.7292 16.6793C20.5361 16.5138 20.3198 16.2782 20.1544 16.103C19.9497 15.8867 19.8514 15.6675 20.014 15.3283L20.7248 14.3287C20.9353 14.0988 21.7139 12.9854 21.9021 12.6806C22.1731 12.2412 22.729 11.3775 22.0124 11.2391C21.6094 11.1612 20.301 11.2338 19.8031 11.2372C18.8223 11.2435 19.0216 11.1351 18.5377 12.2524C18.2155 12.9956 17.2206 14.7472 16.6932 14.947C15.7153 15.3177 16.4803 11.7709 16.0681 11.1574C15.8179 10.7853 14.6585 10.8317 14.1161 10.839C13.4861 10.8467 12.6152 10.8801 12.4313 11.3998C12.4874 11.4477 12.426 11.4153 12.5348 11.4598C12.6132 11.4917 12.7356 11.499 12.8687 11.5701C12.9868 11.6325 13.0942 11.7424 13.1556 11.8411C13.4527 12.3162 13.4169 14.318 13.1711 14.8033C12.711 15.7101 11.3668 13.1625 11.1364 12.7087C10.8074 12.0608 10.6782 11.4308 10.3056 11.2696C10.0356 11.1535 8.50516 11.2183 8.09338 11.2251C7.71645 11.2309 7.39129 11.2904 7.53451 11.737C7.60661 11.962 7.7779 12.279 7.88145 12.5059C8.51967 13.9067 9.51742 15.6264 10.3966 16.7916C11.389 18.1062 12.8561 19.2709 14.7108 19.2859C16.0429 19.2966 16.1435 19.3556 16.1992 18.4977Z" fill="white"/>
</svg>
