<?xml version="1.0" encoding="UTF-8" standalone="no"?>
<svg
   xmlns:dc="http://purl.org/dc/elements/1.1/"
   xmlns:cc="http://creativecommons.org/ns#"
   xmlns:rdf="http://www.w3.org/1999/02/22-rdf-syntax-ns#"
   xmlns:svg="http://www.w3.org/2000/svg"
   xmlns="http://www.w3.org/2000/svg"
   xmlns:sodipodi="http://sodipodi.sourceforge.net/DTD/sodipodi-0.dtd"
   xmlns:inkscape="http://www.inkscape.org/namespaces/inkscape"
   width="30"
   height="30"
   viewBox="0 0 30 30"
   fill="none"
   version="1.1"
   id="svg854"
   sodipodi:docname="Whatsapp.svg"
   inkscape:version="0.92.4 (5da689c313, 2019-01-14)">
  <metadata
     id="metadata860">
    <rdf:RDF>
      <cc:Work
         rdf:about="">
        <dc:format>image/svg+xml</dc:format>
        <dc:type
           rdf:resource="http://purl.org/dc/dcmitype/StillImage" />
      </cc:Work>
    </rdf:RDF>
  </metadata>
  <defs
     id="defs858" />
  <sodipodi:namedview
     pagecolor="#ffffff"
     bordercolor="#666666"
     borderopacity="1"
     objecttolerance="10"
     gridtolerance="10"
     guidetolerance="10"
     inkscape:pageopacity="0"
     inkscape:pageshadow="2"
     inkscape:window-width="1920"
     inkscape:window-height="1001"
     id="namedview856"
     showgrid="false"
     inkscape:zoom="7.8666667"
     inkscape:cx="15"
     inkscape:cy="15"
     inkscape:window-x="-9"
     inkscape:window-y="-9"
     inkscape:window-maximized="1"
     inkscape:current-layer="svg854" />
  <path
     fill-rule="evenodd"
     clip-rule="evenodd"
     d="M15 30C23.2843 30 30 23.2843 30 15C30 6.71573 23.2843 0 15 0C6.71573 0 0 6.71573 0 15C0 23.2843 6.71573 30 15 30Z"
     fill="#F2AA07"
     id="path850"
     style="fill:none" />
  <path
     d="M14.9971 5V5.00017H15.0029C20.5157 5.00017 25 9.4857 25 15.0001C25 20.5143 20.5157 25 15.0029 25C12.9693 25 11.0828 24.3946 9.50185 23.3481L5.65817 24.5766L6.90418 20.8612C5.70528 19.215 5 17.1869 5 14.9999C5 9.48554 9.48427 5 14.9971 5ZM12.2054 10.0795C12.0115 9.61512 11.8645 9.59753 11.5707 9.58558C11.4707 9.57978 11.3593 9.57397 11.2357 9.57397C10.8535 9.57397 10.4539 9.68563 10.2129 9.93251C9.91918 10.2323 9.19035 10.9318 9.19035 12.3663C9.19035 13.8008 10.2365 15.1882 10.3775 15.3824C10.5244 15.5761 12.417 18.5626 15.3555 19.7798C17.6535 20.7321 18.3354 20.6439 18.8584 20.5322C19.6224 20.3676 20.5804 19.803 20.8214 19.1213C21.0624 18.4392 21.0624 17.8572 20.9918 17.7337C20.9213 17.6103 20.7272 17.5399 20.4335 17.3928C20.1397 17.2458 18.7114 16.5403 18.441 16.4462C18.1765 16.3463 17.9239 16.3817 17.7242 16.6639C17.442 17.0578 17.1658 17.4576 16.9424 17.6985C16.7661 17.8867 16.478 17.9102 16.2371 17.8102C15.9139 17.6751 15.0089 17.3574 13.8921 16.3639C13.0281 15.5939 12.4404 14.6357 12.27 14.3477C12.0995 14.0539 12.2525 13.8831 12.3875 13.7245C12.5344 13.5422 12.6754 13.4129 12.8224 13.2424C12.9693 13.072 13.0516 12.9837 13.1457 12.7838C13.2457 12.5898 13.175 12.3899 13.1045 12.2429C13.034 12.0959 12.4464 10.6614 12.2054 10.0795Z"
     id="path852"
     clip-rule="evenodd"
     fill-rule="evenodd"
     fill="white" />
</svg>
