<svg width="35" height="35" viewBox="0 0 35 35" fill="none" xmlns="http://www.w3.org/2000/svg">
<g clip-path="url(#clip0)">
<path d="M24.6897 22.9302L19.2651 25.2119L23.4057 34.4485L25.368 31.6347L28.7742 32.042L24.6897 22.9302Z" fill="#FF507D"/>
<path d="M6.24866 32.042L9.65487 31.6347L11.6171 34.4485L15.7577 25.2119L10.3332 22.9302L6.24866 32.042Z" fill="#FF507D"/>
<path d="M12.9959 24.0502L10.3332 22.9302L6.24866 32.042L9.59267 31.6421L11.8541 26.5975C12.2537 26.781 12.6909 26.8845 13.1407 26.8845C13.301 26.8845 13.4627 26.8719 13.6212 26.8469L14.8373 26.6556L15.0519 26.7864L15.7577 25.2119L12.9959 24.0502Z" fill="#D23C69"/>
<path d="M23.1649 26.5892C23.6333 26.3702 24.0484 26.039 24.3593 25.6112L25.0826 24.6169L25.41 24.5377L24.6893 22.9302L22.0266 24.0502L19.2648 25.2119L23.4054 34.4485L25.3678 31.6347L25.43 31.6421L23.1649 26.5892Z" fill="#D23C69"/>
<path d="M30.0218 13.9596L29.2961 15.1498C29.1324 15.4183 29.0693 15.7363 29.1183 16.0469L29.3346 17.4217C29.412 17.9139 29.2072 18.4082 28.8042 18.7012L27.6793 19.5194C27.4247 19.7047 27.2441 19.9744 27.17 20.2805L26.8424 21.634C26.7254 22.1173 26.348 22.4948 25.8646 22.6117L24.5112 22.9392C24.2051 23.0133 23.9352 23.1938 23.7501 23.4485L22.9321 24.5731C22.6389 24.9761 22.1448 25.1809 21.6524 25.1035L20.2782 24.8872C19.9675 24.8383 19.6495 24.9014 19.3809 25.0651L18.1909 25.7907C17.7667 26.0494 17.2333 26.0494 16.8091 25.7907L15.6189 25.065C15.3504 24.9013 15.0324 24.8382 14.7218 24.8871L13.347 25.1034C12.8548 25.1809 12.3605 24.9761 12.0675 24.573L11.2493 23.4482C11.064 23.1935 10.7943 23.0129 10.4882 22.9389L9.13473 22.6113C8.65136 22.4943 8.27394 22.1169 8.15698 21.6335L7.82947 20.28C7.75544 19.974 7.5749 19.7041 7.32019 19.5189L6.19561 18.7009C5.79263 18.4078 5.58783 17.9136 5.66521 17.4213L5.8815 16.0471C5.93038 15.7364 5.86735 15.4184 5.70363 15.1498L4.97799 13.9597C4.71925 13.5355 4.71925 13.0021 4.97799 12.5779L5.7037 11.3877C5.86742 11.1192 5.93051 10.8012 5.88157 10.4905L5.66528 9.11577C5.58783 8.62358 5.79263 8.12934 6.19568 7.83629L7.32053 7.01809C7.57517 6.83284 7.75578 6.56309 7.82981 6.25704L8.15739 4.90353C8.27442 4.42016 8.65184 4.04274 9.13521 3.92578L10.4887 3.59827C10.7947 3.52424 11.0646 3.3437 11.2498 3.08899L12.0678 1.96441C12.361 1.56143 12.8551 1.35663 13.3475 1.43401L14.7217 1.6503C15.0324 1.69917 15.3504 1.63615 15.619 1.47243L16.8089 0.74679C17.2331 0.488049 17.7665 0.488049 18.1907 0.74679L19.3809 1.47249C19.6494 1.63622 19.9674 1.69931 20.2781 1.65037L21.6529 1.43408C22.145 1.35663 22.6393 1.56143 22.9323 1.96448L23.7505 3.08933C23.9358 3.34397 24.2055 3.52458 24.5116 3.59861L25.8651 3.92619C26.3485 4.04322 26.7259 4.42063 26.8428 4.90401L27.1704 6.25746C27.2444 6.5635 27.4249 6.83338 27.6796 7.01864L28.8042 7.83663C29.2072 8.12975 29.412 8.62392 29.3346 9.11625L29.1183 10.4905C29.0695 10.8012 29.1325 11.1192 29.2962 11.3878L30.0218 12.5777C30.2805 13.0021 30.2805 13.5353 30.0218 13.9596Z" fill="#FFC850"/>
<path d="M9.85168 10.6211C9.85168 7.09374 11.1746 3.87674 13.3488 1.43412L13.3475 1.43391C12.8552 1.35639 12.361 1.5612 12.0679 1.96425L11.25 3.08883C11.0647 3.34347 10.7949 3.52407 10.4888 3.59811L9.13534 3.92562C8.65197 4.04258 8.27456 4.41999 8.15753 4.90336L7.82995 6.25688C7.75592 6.56293 7.57538 6.83267 7.32067 7.01793L6.19575 7.83612C5.79284 8.12918 5.58796 8.62335 5.66535 9.11561L5.88164 10.4903C5.93051 10.801 5.86742 11.119 5.70376 11.3875L4.97799 12.5775C4.71925 13.0018 4.71925 13.5351 4.97799 13.9594L5.70363 15.1493C5.86742 15.4179 5.93044 15.7359 5.8815 16.0466L5.66521 17.4209C5.58769 17.9132 5.79249 18.4074 6.19554 18.7005L7.32012 19.5185C7.57476 19.7037 7.75537 19.9736 7.8294 20.2797L8.15691 21.6331C8.27388 22.1165 8.65129 22.4939 9.13466 22.6109L10.4882 22.9385C10.7942 23.0126 11.064 23.1931 11.2492 23.4478L12.0674 24.5727C12.3605 24.9756 12.8546 25.1804 13.3468 25.1031L14.7215 24.8868C15.0322 24.8379 15.3502 24.9009 15.6188 25.0646L16.809 25.7903C17.2333 26.0491 17.7666 26.0491 18.1908 25.7903L19.3807 25.0647C19.6493 24.9009 19.9673 24.8379 20.278 24.8868L21.6523 25.1031C22.1446 25.1806 22.6388 24.9758 22.9319 24.5728L23.0354 24.4304C15.698 24.095 9.85168 18.0416 9.85168 10.6211Z" fill="#E1A546"/>
<path d="M17.4997 22.6822C22.6985 22.6822 26.9129 18.4677 26.9129 13.269C26.9129 8.07016 22.6985 3.85571 17.4997 3.85571C12.3009 3.85571 8.08643 8.07016 8.08643 13.269C8.08643 18.4677 12.3009 22.6822 17.4997 22.6822Z" fill="#FFDC64"/>
<path d="M19.6251 17.8064C16.2905 17.1428 13.6231 14.474 12.9613 11.139C12.7499 10.0737 12.7451 9.03837 12.9071 8.05905C12.9684 7.68813 12.5163 7.4592 12.2432 7.71766C10.5543 9.31605 9.59293 11.6745 9.91265 14.2475C10.337 17.6634 13.1048 20.4314 16.5206 20.856C19.0939 21.1759 21.4524 20.2144 23.0511 18.5254C23.3095 18.2524 23.0806 17.8003 22.7097 17.8616C21.7289 18.0237 20.6919 18.0187 19.6251 17.8064Z" fill="#FFC850"/>
<path d="M17.4999 16.9388L14.3142 18.722C13.9828 18.9075 13.5862 18.6194 13.6602 18.2468L14.3717 14.666L11.6913 12.1872C11.4124 11.9293 11.5639 11.4631 11.9411 11.4184L15.5666 10.9886L17.0957 7.67333C17.2548 7.32845 17.745 7.32845 17.9041 7.67333L19.4332 10.9886L23.0587 11.4184C23.4359 11.4631 23.5874 11.9294 23.3085 12.1872L20.628 14.666L21.3395 18.2468C21.4136 18.6194 21.017 18.9075 20.6855 18.722L17.4999 16.9388Z" fill="white"/>
<path d="M17.4999 7.97367L17.8554 7.61813C17.667 7.34333 17.2435 7.35296 17.0957 7.6733L15.5666 10.9885L11.941 11.4184C11.5638 11.4631 11.4123 11.9293 11.6912 12.1871L14.3716 14.6659L13.6601 18.2468C13.5861 18.6194 13.9826 18.9075 14.3141 18.722L15.1535 18.2521L16.3698 14.6943C16.501 14.3107 16.4253 13.8864 16.1696 13.5717L15.9535 13.3057C15.799 13.1155 15.8916 12.8292 16.1283 12.7658L16.3314 12.7113C16.8117 12.5825 17.159 12.1657 17.1993 11.6702L17.4999 7.97367Z" fill="#FFFAB4"/>
<path d="M21.4703 5.34566C21.7421 5.4832 22.0739 5.37396 22.2113 5.10209C22.3487 4.83023 22.2397 4.49848 21.9677 4.36108C18.1179 2.4157 13.4803 3.15952 10.428 6.21191C6.88044 9.75936 6.52539 15.4158 9.60211 19.3693C9.71087 19.5091 9.87343 19.5822 10.0378 19.5822C10.1562 19.5822 10.2755 19.5443 10.3761 19.4659C10.6166 19.2788 10.6598 18.9322 10.4727 18.6918C7.73706 15.1766 8.05322 10.1468 11.2081 6.99189C13.9225 4.2772 18.0466 3.61561 21.4703 5.34566Z" fill="black"/>
<path d="M25.6311 8.52266C25.3593 8.65999 25.2501 8.99167 25.3874 9.26367C27.1162 12.6868 26.4542 16.8103 23.7403 19.5242C20.5854 22.679 15.5555 22.9951 12.0404 20.2595C11.7999 20.0725 11.4534 20.1157 11.2663 20.3561C11.0792 20.5965 11.1225 20.943 11.3629 21.1301C13.1638 22.5316 15.3179 23.221 17.4651 23.221C20.0319 23.221 22.5888 22.2359 24.5204 20.3042C27.572 17.2526 28.3161 12.616 26.3722 8.76643C26.2348 8.49449 25.9031 8.38546 25.6311 8.52266Z" fill="black"/>
<path d="M23.3361 6.61162C23.4738 6.7333 23.6099 6.86127 23.7404 6.99177C23.8709 7.12234 23.9988 7.2583 24.1206 7.39605C24.2296 7.51937 24.3815 7.58233 24.5341 7.58233C24.6639 7.58233 24.7942 7.53673 24.8991 7.4441C25.1274 7.24237 25.1489 6.89388 24.9472 6.66563C24.8106 6.511 24.667 6.35828 24.5205 6.21185C24.374 6.06536 24.2214 5.9218 24.0667 5.78515C23.8385 5.58336 23.4898 5.60496 23.2882 5.83314C23.0863 6.06133 23.1078 6.40996 23.3361 6.61162Z" fill="black"/>
<path d="M30.4927 12.2906L29.7671 11.1007C29.6715 10.9439 29.6345 10.7577 29.6631 10.5764L29.8794 9.20216C29.9897 8.50181 29.7019 7.80776 29.1287 7.3907L28.0041 6.57271C27.8554 6.46456 27.7497 6.30665 27.7064 6.12796L27.3789 4.77451C27.2127 4.08702 26.6823 3.55669 25.9949 3.3903L24.6413 3.06272C24.4627 3.01945 24.3047 2.91383 24.1966 2.76508L23.3785 1.64023C22.9615 1.06696 22.2674 0.779102 21.5672 0.889434L20.1925 1.10572C20.0112 1.13423 19.8249 1.09732 19.6683 1.00175L18.4781 0.275908C17.8748 -0.0920033 17.1253 -0.091935 16.5219 0.275908L15.332 1.00154C15.1753 1.09718 14.9892 1.13402 14.8077 1.10552L13.4333 0.889229C12.7332 0.779034 12.039 1.06676 11.622 1.64002L10.804 2.7646C10.6959 2.91329 10.5379 3.01897 10.3592 3.06224L9.00575 3.38975C8.31839 3.556 7.78792 4.0864 7.62154 4.77383L7.29396 6.12734C7.25069 6.30604 7.14507 6.46402 6.99632 6.57209L5.8714 7.39022C5.29813 7.80714 5.01048 8.50113 5.1206 9.20147L5.33689 10.5762C5.3654 10.7576 5.32849 10.9438 5.23292 11.1005L4.50715 12.2907C4.13937 12.894 4.13937 13.6435 4.50721 14.2468L5.23285 15.4367C5.32849 15.5936 5.3654 15.7798 5.33682 15.9611L5.12054 17.3354C5.01027 18.0357 5.298 18.7298 5.87126 19.1468L6.99584 19.9648C7.14452 20.0729 7.25021 20.2309 7.29348 20.4096L7.62099 21.763C7.78724 22.4505 8.31764 22.9808 9.00506 23.1472L9.57026 23.284L5.74527 31.8162C5.66399 31.9976 5.68648 32.2085 5.80427 32.3686C5.92198 32.5287 6.1166 32.6132 6.31402 32.5895L9.39171 32.2215L11.1647 34.7639C11.2684 34.9126 11.4378 34.9999 11.6169 34.9999C11.6341 34.9999 11.6515 34.9991 11.6687 34.9975C11.8665 34.979 12.0391 34.8553 12.1204 34.6741L16.0268 25.9597L16.5218 26.2615C16.8235 26.4454 17.1617 26.5374 17.4999 26.5374C17.8381 26.5374 18.1763 26.4454 18.478 26.2615L18.9908 25.9488L22.9021 34.6741C22.9834 34.8554 23.156 34.979 23.3539 34.9975C23.3712 34.9992 23.3885 34.9999 23.4056 34.9999C23.5848 34.9999 23.7542 34.9126 23.8579 34.7639L25.6308 32.2215L28.7085 32.5895C28.9058 32.613 29.1006 32.5287 29.2183 32.3686C29.336 32.2085 29.3586 31.9976 29.2773 31.8162L25.4503 23.2793L25.9942 23.1477C26.6816 22.9815 27.2121 22.451 27.3785 21.7636L27.706 20.4101C27.7493 20.2314 27.8549 20.0734 28.0037 19.9654L29.1285 19.1472C29.7018 18.7303 29.9895 18.0363 29.8793 17.336L29.663 15.9612C29.6345 15.7798 29.6714 15.5936 29.767 15.437L30.4928 14.2467C30.8606 13.6434 30.8606 12.8938 30.4927 12.2906ZM11.5123 33.334L10.1072 31.3191C9.99074 31.1521 9.79154 31.0626 9.58933 31.087L7.15033 31.3786L10.6352 23.6045C10.6989 23.6514 10.7561 23.7075 10.8032 23.7724L11.6213 24.8972C11.699 25.0041 11.7864 25.1009 11.8816 25.1872L10.0473 29.279C9.92279 29.5569 10.0471 29.8833 10.325 30.0079C10.3983 30.0408 10.4749 30.0563 10.5503 30.0563C10.7609 30.0563 10.9622 29.9349 11.0539 29.7302L12.8817 25.653C13.0615 25.6777 13.2467 25.6773 13.4326 25.648L14.8073 25.4317C14.8896 25.4188 14.9728 25.42 15.0538 25.4334L11.5123 33.334ZM25.4333 31.087C25.2309 31.0627 25.0319 31.1521 24.9154 31.3191L23.5103 33.334L19.9673 25.4303C20.0416 25.4202 20.1174 25.4202 20.1924 25.4319L21.5667 25.6482C21.7601 25.6786 21.9528 25.6777 22.1395 25.6499L23.9686 29.7304C24.0604 29.9351 24.2615 30.0565 24.4722 30.0565C24.5476 30.0565 24.6243 30.0409 24.6975 30.0081C24.9754 29.8835 25.0998 29.5571 24.9751 29.2791L23.1339 25.1718C23.2226 25.0893 23.3048 24.9981 23.378 24.8974L24.196 23.7728C24.2475 23.702 24.3107 23.6412 24.3816 23.592L27.8722 31.3787L25.4333 31.087ZM29.5509 13.6725L28.8252 14.8627C28.5937 15.2423 28.5042 15.6934 28.5733 16.1326L28.7896 17.5074C28.8351 17.7964 28.7163 18.0829 28.4797 18.2551L27.3547 19.0733C26.9947 19.3352 26.7386 19.7178 26.6339 20.1506L26.3063 21.5041C26.2376 21.7879 26.0187 22.0068 25.7349 22.0756L24.3814 22.4031C23.9485 22.5078 23.5658 22.7639 23.3039 23.124L22.4859 24.2486C22.3138 24.4853 22.0273 24.604 21.7381 24.5584L20.3638 24.3421C19.9245 24.273 19.4734 24.3624 19.0936 24.594L17.9037 25.3196C17.6547 25.4714 17.3451 25.4714 17.0962 25.3196L15.906 24.5939C15.61 24.4134 15.2707 24.3193 14.9273 24.3193C14.8303 24.3193 14.7327 24.3268 14.636 24.3421L13.2612 24.5584C12.972 24.6039 12.6856 24.485 12.5135 24.2484L11.6953 23.1236C11.4333 22.7635 11.0507 22.5074 10.6179 22.4027L9.26442 22.0751C8.98059 22.0064 8.7617 21.7875 8.693 21.5037L8.36549 20.1503C8.26077 19.7174 8.00476 19.3347 7.64457 19.0727L6.52006 18.2547C6.2834 18.0825 6.16466 17.796 6.21019 17.5069L6.42648 16.1325C6.49559 15.6932 6.40617 15.2421 6.17464 14.8624L5.449 13.6723C5.29711 13.4233 5.29711 13.1138 5.449 12.8649L6.17478 11.6747C6.40624 11.295 6.49572 10.8439 6.42661 10.4047L6.21032 9.02996C6.16486 8.74087 6.28367 8.45437 6.52026 8.28224L7.64519 7.46405C8.00524 7.20209 8.26131 6.81948 8.36604 6.3867L8.69362 5.03318C8.76232 4.74942 8.98121 4.53047 9.26504 4.46176L10.6186 4.13425C11.0514 4.02953 11.4341 3.77345 11.696 3.41334L12.514 2.28875C12.6862 2.05209 12.9726 1.93322 13.2618 1.97881L14.6362 2.1951C15.0756 2.26435 15.5267 2.1748 15.9064 1.94326L17.0963 1.21763C17.3453 1.06587 17.6549 1.06587 17.9038 1.21763L19.094 1.94333C19.4736 2.17493 19.9248 2.26442 20.364 2.19524L21.7388 1.97895C22.0278 1.93363 22.3144 2.0523 22.4865 2.28889L23.3047 3.41375C23.5667 3.7738 23.9493 4.02987 24.3821 4.1346L25.7356 4.46218C26.0194 4.53088 26.2383 4.74976 26.307 5.03359L26.6345 6.38704C26.7392 6.81989 26.9952 7.20264 27.3554 7.46459L28.48 8.28258C28.7167 8.45471 28.8354 8.74128 28.7899 9.03037L28.5736 10.4047C28.5045 10.8441 28.5939 11.2951 28.8254 11.6749L29.5511 12.8649C29.7028 13.114 29.7028 13.4234 29.5509 13.6725Z" fill="black"/>
<path d="M11.3167 12.5921L13.7705 14.8613L13.1192 18.1394C13.0425 18.5254 13.1926 18.9087 13.511 19.1399C13.6866 19.2675 13.8904 19.3321 14.0955 19.3321C14.2622 19.3321 14.4297 19.2894 14.5835 19.2033L17.4999 17.5709L20.4163 19.2033C20.7596 19.3955 21.1705 19.3712 21.4888 19.14C21.8072 18.9087 21.9573 18.5253 21.8806 18.1394L21.2293 14.8614L23.683 12.5922C23.9719 12.3251 24.0758 11.9266 23.9543 11.5524C23.8327 11.1782 23.5145 10.917 23.1238 10.8706L19.8048 10.4771L18.405 7.44225C18.2402 7.085 17.8934 6.86304 17.4999 6.86304C17.1064 6.86304 16.7596 7.085 16.5948 7.44225L15.195 10.4771L11.876 10.8707C11.4853 10.917 11.167 11.1783 11.0455 11.5525C10.9241 11.9266 11.028 12.325 11.3167 12.5921ZM15.6315 11.5362C15.8219 11.5137 15.987 11.3937 16.0674 11.2196L17.4999 8.11395L18.9324 11.2196C19.0128 11.3937 19.1778 11.5137 19.3683 11.5362L22.7647 11.9389L20.2536 14.261C20.1128 14.3913 20.0498 14.5853 20.0871 14.7735L20.7536 18.1279L17.7692 16.4574C17.6855 16.4106 17.5927 16.3871 17.4998 16.3871C17.4069 16.3871 17.3141 16.4105 17.2304 16.4574L14.2459 18.1279L14.9124 14.7735C14.9499 14.5853 14.8868 14.3913 14.7459 14.261L12.235 11.9389L15.6315 11.5362Z" fill="black"/>
</g>
<defs>
<clipPath id="clip0">
<rect width="35" height="35" fill="white"/>
</clipPath>
</defs>
</svg>
