<svg width="15" height="19" viewBox="0 0 15 19" fill="none" xmlns="http://www.w3.org/2000/svg">
<path fill-rule="evenodd" clip-rule="evenodd" d="M11.5794 7.87025C11.0325 8.47623 10.3091 8.77006 9.04256 8.77006H3.55682V8.77001L3.42064 8.77006V2.01244H8.99933C9.89171 2.01244 10.5106 2.06751 10.8272 2.17773C11.3514 2.49927 11.7627 2.74696 12.065 3.29788C12.3816 3.86712 12.54 4.54653 12.54 5.31779C12.54 6.41958 12.0976 7.28264 11.5794 7.87025ZM14.4426 2.90135C14.126 2.11176 13.6651 1.64133 13.1757 1.20064C12.6863 0.759892 11.8203 0.330514 11.1007 0.183599C10.5825 0.0550564 9.8197 0 8.84107 0H1.24155V8.77001H0V10.7369H1.24155V11.5341H0V13.501H1.24155V18.9322H3.42064V13.501H11.2247V11.5341H3.42064V10.7369H3.55682H9.0138C11.1151 10.7369 12.6183 10.1687 13.5558 9.06588C14.452 8.01174 15 7.08814 15 5.47218C15 4.53563 14.7305 3.67261 14.4426 2.90135Z" fill="currentColor"/>
</svg>
