<svg width="64" height="64" viewBox="0 0 64 64" fill="none" xmlns="http://www.w3.org/2000/svg">
<path d="M43.3029 25.925L42.6019 24.052C41.9749 24.287 41.3389 24.502 40.7109 24.692L41.2889 26.606C41.9579 26.404 42.6359 26.175 43.3029 25.925Z" fill="#41414A"/>
<path d="M37 30.28V27.592C37.742 27.473 38.487 27.327 39.226 27.157L38.775 25.208C37.811 25.432 36.834 25.608 35.871 25.735L35 25.85V30.281C35 30.549 35.006 30.816 35.02 31.082L37.018 30.98C37.006 30.747 37 30.515 37 30.28Z" fill="#41414A"/>
<path d="M19 13C15.691 13 13 15.691 13 19C13 22.309 15.691 25 19 25C22.309 25 25 22.309 25 19C25 15.691 22.309 13 19 13ZM19 23C16.794 23 15 21.206 15 19C15 16.794 16.794 15 19 15C21.206 15 23 16.794 23 19C23 21.206 21.206 23 19 23Z" fill="#41414A"/>
<path d="M45.478 18.788L45.001 18.529L44.524 18.788C40.696 20.862 36.363 21.973 31.994 21.999L31 22.005V30.28C31 38.957 36.489 46.775 44.659 49.733L45 49.856L45.341 49.733C53.511 46.775 59 38.957 59 30.28V22.005L58.006 21.999C53.64 21.973 49.308 20.862 45.478 18.788ZM57 30.28C57 37.997 52.193 44.962 45 47.725C37.807 44.961 33 37.996 33 30.28V23.975C37.178 23.804 41.297 22.714 45.001 20.798C48.706 22.714 52.824 23.804 57 23.975V30.28Z" fill="#41414A"/>
<path d="M40.9999 31.586L36.5859 36L42.9999 42.414L55.4139 30L50.9999 25.586L42.9999 33.586L40.9999 31.586ZM52.5859 30L42.9999 39.586L39.4139 36L40.9999 34.414L42.9999 36.414L50.9999 28.414L52.5859 30Z" fill="#41414A"/>
<path d="M63 18H58.171C53.677 18 49.326 16.683 45.549 14.164L44.962 13.823L44.411 14.19C42.134 15.709 39.627 16.785 37 17.399V15.208L34.365 14.588C34.033 13.429 33.57 12.313 32.984 11.256L34.41 8.953L29.047 3.59L26.744 5.016C25.687 4.43 24.571 3.967 23.412 3.635L22.792 1H15.208L14.588 3.635C13.429 3.967 12.313 4.43 11.256 5.016L8.953 3.59L3.59 8.953L5.016 11.256C4.43 12.313 3.967 13.429 3.635 14.588L1 15.208V22.792L3.635 23.412C3.967 24.571 4.43 25.687 5.016 26.744L3.59 29.047L8.953 34.41L11.256 32.984C12.313 33.57 13.429 34.033 14.588 34.365L15.208 37H22.792L23.412 34.365C24.571 34.033 25.687 33.57 26.744 32.984L27.205 33.269C27.741 37.592 29.403 41.647 31.95 45.049L28.586 57.384L33.524 56.149L37.261 62.378L40.614 52.319C41.918 52.978 43.285 53.536 44.718 53.958L45 54.042L45.282 53.959C46.715 53.537 48.082 52.979 49.386 52.32L52.739 62.379L56.476 56.15L61.414 57.385L58.05 45.05C61.177 40.872 63 35.718 63 30.28V18ZM26.766 30.646L26.243 30.964C25.028 31.7 23.716 32.245 22.34 32.581L21.744 32.727L21.208 35H16.792L16.257 32.727L15.661 32.581C14.285 32.245 12.973 31.7 11.758 30.964L11.235 30.646L9.249 31.875L6.126 28.752L7.355 26.766L7.037 26.243C6.301 25.028 5.756 23.716 5.42 22.34L5.274 21.744L3 21.208V16.792L5.273 16.257L5.419 15.661C5.755 14.285 6.3 12.973 7.036 11.758L7.354 11.235L6.125 9.248L9.248 6.125L11.234 7.354L11.757 7.036C12.972 6.3 14.284 5.755 15.66 5.419L16.256 5.273L16.792 3H21.208L21.743 5.273L22.339 5.419C23.715 5.755 25.027 6.3 26.242 7.036L26.765 7.354L28.751 6.125L31.874 9.248L30.645 11.234L30.963 11.757C31.699 12.972 32.244 14.284 32.58 15.66L32.726 16.256L35 16.792V17.774C33.955 17.92 32.897 18 31.829 18H30.949C30.438 11.85 25.28 7 19 7C12.383 7 7 12.383 7 19C7 25.617 12.383 31 19 31C21.98 31 24.82 29.881 27 27.932V30.281C27 30.457 27.018 30.63 27.022 30.805L26.766 30.646ZM27 18V24.979C25.113 27.497 22.151 29 19 29C13.486 29 9 24.514 9 19C9 13.486 13.486 9 19 9C24.176 9 28.446 12.954 28.949 18H27ZM36.739 57.621L34.476 53.85L31.414 54.615L33.513 46.917C35.065 48.618 36.853 50.106 38.837 51.326L36.739 57.621ZM58.586 54.615L55.524 53.85L53.261 57.621L51.163 51.326C53.147 50.106 54.935 48.618 56.487 46.917L58.586 54.615ZM61 30.28C61 40.174 54.436 49.045 45 51.956C35.564 49.045 29 40.174 29 30.28V20H31.829C36.502 20 41.032 18.691 44.999 16.192C48.947 18.686 53.488 20 58.171 20H61V30.28Z" fill="#41414A"/>
</svg>
