<svg width="64" height="64" viewBox="0 0 64 64" fill="none" xmlns="http://www.w3.org/2000/svg">
<path d="M3.70715 35.7071L5.10003 34.3149C5.66692 40.8909 8.62278 47.0316 13.4091 51.5766C18.1954 56.1215 24.4806 58.756 31.0772 58.9822C37.6737 59.2085 44.1247 57.0107 49.2111 52.8043C54.2975 48.5979 57.6671 42.6741 58.6832 36.1524C58.7236 35.8903 58.6583 35.6228 58.5016 35.4088C58.3449 35.1949 58.1096 35.0519 57.8475 35.0114C57.5854 34.971 57.3179 35.0363 57.1039 35.193C56.89 35.3497 56.747 35.585 56.7065 35.8471C55.7715 41.8524 52.6812 47.3114 48.0134 51.2035C43.3456 55.0956 37.4199 57.1542 31.3444 56.9944C25.2689 56.8346 19.4597 54.4673 15.0029 50.3353C10.5461 46.2032 7.74704 40.5892 7.12903 34.5431L8.2929 35.7071C8.48044 35.8947 8.7348 36 9.00003 36C9.26525 36 9.51961 35.8947 9.70715 35.7071C9.89469 35.5196 10.0001 35.2652 10.0001 35C10.0001 34.7348 9.89469 34.4804 9.70715 34.2929L6.70715 31.2929C6.61429 31.2 6.50405 31.1264 6.38272 31.0761C6.26139 31.0258 6.13135 31 6.00003 31C5.8687 31 5.73866 31.0258 5.61733 31.0761C5.496 31.1264 5.38576 31.2 5.2929 31.2929L2.2929 34.2929C2.20004 34.3857 2.12638 34.496 2.07612 34.6173C2.02587 34.7386 2 34.8687 2 35C2 35.1313 2.02587 35.2614 2.07612 35.3827C2.12638 35.504 2.20004 35.6143 2.2929 35.7071C2.38576 35.8 2.496 35.8737 2.61733 35.9239C2.73866 35.9742 2.8687 36 3.00003 36C3.13135 36 3.26139 35.9742 3.38272 35.9239C3.50405 35.8737 3.61429 35.8 3.70715 35.7071Z" fill="#41414A"/>
<path d="M60.2928 28.2929L58.9003 29.6854C58.3334 23.1094 55.3775 16.9687 50.5912 12.4238C45.805 7.87883 39.5197 5.24435 32.9232 5.01813C26.3267 4.79192 19.8758 6.98965 14.7894 11.196C9.703 15.4024 6.33343 21.3262 5.31738 27.8479C5.27691 28.11 5.34221 28.3775 5.49893 28.5914C5.65565 28.8054 5.89095 28.9483 6.15307 28.9888C6.41519 29.0293 6.68265 28.964 6.89662 28.8073C7.11058 28.6506 7.25353 28.4153 7.29401 28.1531C8.22975 22.1484 11.3205 16.69 15.9883 12.7985C20.6562 8.90701 26.5816 6.84882 32.6567 7.00874C38.7318 7.16867 44.5407 9.53576 48.9973 13.6675C53.454 17.7992 56.2532 23.4126 56.8718 29.4583L55.707 28.2934C55.6142 28.2005 55.5039 28.1269 55.3826 28.0766C55.2612 28.0264 55.1312 28.0005 54.9999 28.0005C54.8686 28.0005 54.7385 28.0264 54.6172 28.0766C54.4959 28.1269 54.3856 28.2005 54.2928 28.2934C54.1999 28.3862 54.1262 28.4965 54.076 28.6178C54.0257 28.7391 53.9999 28.8692 53.9999 29.0005C53.9999 29.1318 54.0257 29.2619 54.076 29.3832C54.1262 29.5045 54.1999 29.6148 54.2928 29.7076L57.2928 32.7076C57.3856 32.8005 57.4959 32.8742 57.6172 32.9244C57.7385 32.9747 57.8686 33.0006 57.9999 33.0006C58.1312 33.0006 58.2612 32.9747 58.3826 32.9244C58.5039 32.8742 58.6142 32.8005 58.707 32.7076L61.707 29.7076C61.8946 29.5201 61.9999 29.2657 61.9999 29.0005C61.9999 28.7353 61.8946 28.4809 61.707 28.2934C61.5195 28.1058 61.2651 28.0005 60.9999 28.0005C60.7347 28.0005 60.4803 28.1058 60.2928 28.2934V28.2929Z" fill="#41414A"/>
<path d="M37.6387 42.7692L37.6403 42.7682C37.6403 42.7682 43.6716 37.7406 43.6847 37.7275C43.7843 37.6343 43.8636 37.5216 43.9178 37.3965C43.9721 37.2713 44 37.1364 44 37C44 37 43.9763 21.7735 43.9571 21.7103C43.8949 21.5048 43.7683 21.3249 43.5959 21.197C43.4236 21.069 43.2146 21 43 21H27C26.8025 21 26.6095 21.0584 26.4452 21.168L20.4452 25.168C20.3239 25.2494 20.2219 25.3564 20.1465 25.4816C20.0711 25.6067 20.0241 25.7469 20.0089 25.8923C20.0061 25.9082 20.0044 25.9267 20.003 25.946C20.003 25.9585 20.0011 25.971 20.001 25.9835C20.001 25.9896 20 25.994 20 26.0005V42C20 42.2652 20.1054 42.5196 20.2929 42.7071C20.4804 42.8946 20.7348 43 21 43H37C37.2334 43.0003 37.4595 42.9186 37.6387 42.7692ZM42 36.5317L38 39.865V26.5351L42 23.8685V36.5317ZM36 41H22V27H26V33C26 33.2652 26.1054 33.5196 26.2929 33.7071C26.4804 33.8946 26.7348 34 27 34H31C31.2652 34 31.5196 33.8946 31.7071 33.7071C31.8946 33.5196 32 33.2652 32 33V27H36V41ZM28 32V27H30V32H28ZM24.3027 25L27.3027 23H39.6973L36.6973 25H24.3027Z" fill="#41414A"/>
<path d="M28 37H26C25.7348 37 25.4804 37.1054 25.2929 37.2929C25.1054 37.4804 25 37.7348 25 38C25 38.2652 25.1054 38.5196 25.2929 38.7071C25.4804 38.8946 25.7348 39 26 39H28C28.2652 39 28.5196 38.8946 28.7071 38.7071C28.8946 38.5196 29 38.2652 29 38C29 37.7348 28.8946 37.4804 28.7071 37.2929C28.5196 37.1054 28.2652 37 28 37Z" fill="#41414A"/>
<path d="M31 38C31 38.2652 31.1054 38.5196 31.2929 38.7071C31.4804 38.8946 31.7348 39 32 39H33C33.2652 39 33.5196 38.8946 33.7071 38.7071C33.8946 38.5196 34 38.2652 34 38C34 37.7348 33.8946 37.4804 33.7071 37.2929C33.5196 37.1054 33.2652 37 33 37H32C31.7348 37 31.4804 37.1054 31.2929 37.2929C31.1054 37.4804 31 37.7348 31 38Z" fill="#41414A"/>
<path d="M32 49C32.5523 49 33 48.5523 33 48C33 47.4477 32.5523 47 32 47C31.4477 47 31 47.4477 31 48C31 48.5523 31.4477 49 32 49Z" fill="#41414A"/>
<path d="M28 49C28.5523 49 29 48.5523 29 48C29 47.4477 28.5523 47 28 47C27.4477 47 27 47.4477 27 48C27 48.5523 27.4477 49 28 49Z" fill="#41414A"/>
<path d="M36 49C36.5523 49 37 48.5523 37 48C37 47.4477 36.5523 47 36 47C35.4477 47 35 47.4477 35 48C35 48.5523 35.4477 49 36 49Z" fill="#41414A"/>
</svg>
