<svg width="64" height="64" viewBox="0 0 64 64" fill="none" xmlns="http://www.w3.org/2000/svg">
<path d="M60.5371 38.1336H59.9588V13.8175C59.9588 11.9076 58.4055 10.3538 56.4963 10.3538H55.9188V0.9375C55.9188 0.41975 55.499 0 54.9813 0H9.01875C6.27413 0 4.04125 2.2335 4.04125 4.97875V11.8521C1.53563 13.5148 0 16.3472 0 19.3725V31.7475V54.9813C0 59.9543 4.04575 64 9.01875 64H46.9437C47.4615 64 47.8812 63.5802 47.8812 63.0625C47.8812 62.5448 47.4615 62.125 46.9437 62.125H9.01875C5.07963 62.125 1.875 58.9204 1.875 54.9813V31.7475V24.8716C3.52562 27.0109 6.114 28.3913 9.01875 28.3913H56.4963C57.3715 28.3913 58.0838 29.104 58.0838 29.98V38.1336H52.9609C49.1019 38.1336 45.9624 41.2731 45.9624 45.1321C45.9624 48.9911 49.1019 52.1306 52.9609 52.1306H58.0838V60.5375C58.0838 61.4129 57.3716 62.125 56.4963 62.125H51.3187C50.801 62.125 50.3812 62.5448 50.3812 63.0625C50.3812 63.5802 50.801 64 51.3187 64H56.4963C58.4054 64 59.9588 62.4467 59.9588 60.5375V52.1306H60.5371C62.4465 52.1306 64 50.5771 64 48.6676V41.5965C64 39.6871 62.4465 38.1336 60.5371 38.1336ZM56.4963 12.2288C57.3715 12.2288 58.0838 12.9415 58.0838 13.8175V22.8629C57.6079 22.6164 57.0684 22.4761 56.4965 22.4761H55.9188V12.2288H56.4963ZM56.4963 26.5163H9.01875C5.07963 26.5163 1.875 23.3116 1.875 19.3725C1.875 17.4271 2.67738 15.5825 4.04125 14.2521V19.3725C4.04125 22.1178 6.27413 24.3512 9.01875 24.3512H14.8663C15.384 24.3512 15.8038 23.9315 15.8038 23.4137C15.8038 22.896 15.384 22.4762 14.8663 22.4762H9.01875C7.308 22.4762 5.91625 21.0839 5.91625 19.3725V8.86675C6.76775 9.54762 7.84613 9.95613 9.01875 9.95613H43.4375C43.9552 9.95613 44.375 9.53638 44.375 9.01863C44.375 8.50088 43.9552 8.08113 43.4375 8.08113H9.01875C7.308 8.08113 5.91625 6.68937 5.91625 4.97862C5.91625 3.26737 7.308 1.875 9.01875 1.875H54.0438V4.04063H9.01875C8.501 4.04063 8.08125 4.46037 8.08125 4.97813C8.08125 5.49588 8.501 5.91563 9.01875 5.91563H54.0438V8.08125H47.8125C47.2948 8.08125 46.875 8.501 46.875 9.01875C46.875 9.5365 47.2948 9.95625 47.8125 9.95625H54.0438V22.4762H51.878V19.373C51.878 18.8552 51.4582 18.4355 50.9405 18.4355C47.9761 18.4355 45.5645 16.0239 45.5645 13.0595C45.5645 12.5417 45.1447 12.122 44.627 12.122H12.3019C11.7841 12.122 11.3644 12.5417 11.3644 13.0595C11.3644 13.5772 11.7841 13.997 12.3019 13.997H43.7499C44.1714 17.2469 46.7533 19.8288 50.0031 20.2502V22.4764H19.2412C18.7235 22.4764 18.3037 22.8961 18.3037 23.4139C18.3037 23.9316 18.7235 24.3514 19.2412 24.3514L56.4965 24.3512C57.368 24.3512 58.0773 25.0571 58.0838 25.9271V26.9035C57.6079 26.6566 57.0682 26.5163 56.4963 26.5163ZM62.125 48.6676C62.125 49.5433 61.4126 50.2556 60.5371 50.2556H59.0334C59.0293 50.2556 59.0254 50.255 59.0213 50.255C59.0171 50.255 59.0132 50.2555 59.0091 50.2556H52.9609C50.1357 50.2556 47.8374 47.9573 47.8374 45.1321C47.8374 42.307 50.1357 40.0088 52.9609 40.0088H59.02H59.0213C59.0213 40.0088 59.022 40.0088 59.0225 40.0088H60.5371C61.4126 40.0088 62.125 40.7211 62.125 41.5966V48.6676Z" fill="#41414A"/>
<path d="M52.9608 42.1744C51.3299 42.1744 50.0029 43.5013 50.0029 45.1323C50.0029 46.7633 51.3298 48.0901 52.9608 48.0901C54.5918 48.0901 55.9187 46.7633 55.9187 45.1323C55.9187 43.5013 54.5917 42.1744 52.9608 42.1744ZM52.9608 46.215C52.3638 46.215 51.8779 45.7293 51.8779 45.1321C51.8779 44.535 52.3637 44.0493 52.9608 44.0493C53.5579 44.0493 54.0437 44.535 54.0437 45.1321C54.0437 45.7293 53.5578 46.215 52.9608 46.215Z" fill="#41414A"/>
</svg>
