<svg width="175" height="175" viewBox="0 0 175 175" fill="none" xmlns="http://www.w3.org/2000/svg">
<rect width="175" height="175" rx="20" fill="white"/>
<g clip-path="url(#clip0)">
<rect width="175" height="175" rx="20" fill="white"/>
<path d="M137.844 68.5482V97H145.461C154.722 97 160 92.1969 160 82.7645C160 73.3513 154.722 68.5482 145.461 68.5482H137.844ZM140.377 94.6274V70.9015H144.359C152.363 70.67 157.255 74.3736 157.255 82.7645C157.255 89.9401 154.007 94.6274 146.08 94.6274H140.377ZM105.867 97H108.399V72.4061H108.477L123.731 97H126.94V68.5482H124.407V93.5665H124.33L108.767 68.5482H105.867V97ZM74.972 97L77.9493 89.3035H91.9853L94.982 97H97.766L86.514 68.5482H83.5367L72.362 97H74.972ZM78.7613 86.9502L84.9867 70.9015L91.0767 86.9502H78.7613ZM65.3827 97V94.6274H51.192V68.5482H48.6593V97H65.3827ZM17.61 97L20.5873 89.3035H34.6233L37.6393 97H40.4233L29.152 68.5482H26.1747L15 97H17.61ZM21.4187 86.9502L27.644 70.9015L33.734 86.9502H21.4187Z" fill="#41414A"/>
<path d="M27.7017 64.8254C26.5611 64.8254 25.6331 63.8802 25.6331 62.7421C25.6331 61.5848 26.5611 60.6589 27.7017 60.6589C28.8424 60.6589 29.7704 61.6041 29.7704 62.7421C29.7704 63.8802 28.8617 64.8254 27.7017 64.8254ZM27.7017 59C25.6524 59 23.9897 60.6589 23.9897 62.7421C23.9897 64.8061 25.6524 66.4843 27.7017 66.4843C29.7511 66.4843 31.4137 64.8061 31.4137 62.7421C31.4137 60.6589 29.7511 59 27.7017 59Z" fill="#41414A"/>
</g>
<defs>
<clipPath id="clip0">
<rect width="145" height="38" fill="white" transform="translate(15 59)"/>
</clipPath>
</defs>
</svg>
