<svg width="45" height="45" viewBox="0 0 45 45" fill="none" xmlns="http://www.w3.org/2000/svg">
<circle cx="22.5" cy="22.5" r="22" stroke="#808D9A"/>
<path d="M18 33C18.5523 33 19 32.5523 19 32C19 31.4477 18.5523 31 18 31C17.4477 31 17 31.4477 17 32C17 32.5523 17.4477 33 18 33Z" stroke="#41414A" stroke-width="1.5" stroke-linecap="round" stroke-linejoin="round"/>
<path d="M29 33C29.5523 33 30 32.5523 30 32C30 31.4477 29.5523 31 29 31C28.4477 31 28 31.4477 28 32C28 32.5523 28.4477 33 29 33Z" stroke="#41414A" stroke-width="1.5" stroke-linecap="round" stroke-linejoin="round"/>
<path d="M10 12H14L16.68 25.39C16.7714 25.8504 17.0219 26.264 17.3875 26.5583C17.7532 26.8526 18.2107 27.009 18.68 27H28.4C28.8693 27.009 29.3268 26.8526 29.6925 26.5583C30.0581 26.264 30.3086 25.8504 30.4 25.39L32 17H15" stroke="#41414A" stroke-width="1.5" stroke-linecap="round" stroke-linejoin="round"/>
</svg>
