<svg width="35" height="35" viewBox="0 0 35 35" fill="none" xmlns="http://www.w3.org/2000/svg">
<g clip-path="url(#clip0)">
<path d="M30.269 4.72773L29.4924 5.50977L28.3331 6.66914L27.5614 7.43477L26.2112 3.37695L30.269 4.72773Z" fill="#E6E9ED"/>
<path d="M23.5151 9.83557L25.7026 12.0285H19.1401L18.5933 9.83557H23.5151Z" fill="#F6BB42"/>
<path d="M21.8745 20.7786H23.5151V22.4192H21.8745V20.7786Z" fill="#656D78"/>
<path d="M18.5933 20.7786H20.2339V22.4192H18.5933V20.7786Z" fill="#656D78"/>
<path d="M18.5932 9.83557L19.1401 12.0285H15.8588H15.8479L16.4057 9.83557H18.5932Z" fill="#CCD1D9"/>
<path d="M17.4886 14.2159L15.8594 14.7628H15.8589V12.0284H19.1401V14.7628L17.4886 14.2159Z" fill="#E6E9ED"/>
<path d="M16.4058 9.83557L15.848 12.0285H9.29639L11.4839 9.83557H16.4058Z" fill="#F6BB42"/>
<path d="M15.8588 12.0284V14.7628H15.8594L17.4885 14.2159L19.1406 14.7628V12.0284H25.7031V24.6066H9.29688V12.0284H15.8479H15.8588ZM23.5151 22.4191V20.7784H21.8745V22.4191H23.5151ZM20.2338 22.4191V20.7784H18.5932V22.4191H20.2338Z" fill="#FFCE54"/>
<path d="M29.4924 29.4848C25.0518 33.9194 18.7682 35.3856 13.1135 33.8762L13.119 33.8647C12.6815 33.7444 12.4245 33.3015 12.5393 32.8585C12.6596 32.421 13.1081 32.1634 13.5456 32.2783V32.2897C18.6534 33.6515 24.3245 32.328 28.3331 28.3249C34.3104 22.3476 34.3104 12.646 28.3331 6.66865L29.4924 5.50928C36.1091 12.127 36.1091 22.8622 29.4924 29.4848Z" fill="#CCD1D9"/>
<path d="M5.51195 29.4902V29.4847L6.67078 28.3253L7.43695 27.5597L8.7932 31.623L4.72937 30.2667L5.51195 29.4902Z" fill="#E6E9ED"/>
<path d="M5.51197 5.51515C9.94166 1.08 16.2252 -0.38563 21.8799 1.12375V1.12921C22.3174 1.25007 22.5799 1.69796 22.4596 2.13601C22.3448 2.57351 21.9018 2.83054 21.4588 2.7157V2.70476C16.351 1.34851 10.6745 2.66648 6.67134 6.67507C0.693999 12.6524 0.693999 22.3485 6.67134 28.3259L5.51251 29.4852C-1.11069 22.862 -1.11069 12.1323 5.51197 5.51515Z" fill="#CCD1D9"/>
<path d="M5.51037 30.0366C5.37037 30.0366 5.23037 29.983 5.12373 29.8764C1.81841 26.5716 -0.00213367 22.1769 -0.00158679 17.5017C-0.00158679 12.827 1.81841 8.43286 5.12373 5.12755C9.52716 0.724112 16.0044 -1.01386 22.0282 0.596143C22.3202 0.674346 22.4936 0.973486 22.4154 1.26552C22.3377 1.5581 22.0347 1.732 21.746 1.65271C16.0979 0.143877 10.0248 1.77302 5.89701 5.90083C2.79841 8.99942 1.09216 13.1196 1.09216 17.5022C1.09216 21.8849 2.79841 26.0045 5.89701 29.1031C6.11084 29.3169 6.11084 29.6626 5.89701 29.8764C5.79037 29.983 5.65037 30.0366 5.51037 30.0366Z" fill="black"/>
<path d="M6.67027 28.8767C6.53027 28.8767 6.39027 28.8231 6.28363 28.7164C0.100117 22.5329 0.100117 12.4715 6.28363 6.28799C10.2725 2.29908 16.1405 0.726268 21.5983 2.17986C21.8898 2.25752 22.0637 2.55666 21.9855 2.84924C21.9073 3.14181 21.6093 3.31627 21.3161 3.23642C16.2362 1.88346 10.7707 3.34744 7.05691 7.06127C1.29996 12.8182 1.29996 22.1856 7.05691 27.9431C7.27074 28.157 7.27074 28.5026 7.05691 28.7164C6.95027 28.8231 6.81027 28.8767 6.67027 28.8767Z" fill="black"/>
<path d="M8.79163 32.1704C8.73475 32.1704 8.67624 32.1611 8.61882 32.142L4.55772 30.7879C4.27171 30.6928 4.1164 30.3833 4.2121 30.0961C4.3078 29.8101 4.61515 29.6543 4.9039 29.7505L8.96499 31.1046C9.251 31.1997 9.40631 31.5093 9.31061 31.7964C9.23405 32.0261 9.02077 32.1704 8.79163 32.1704Z" fill="black"/>
<path d="M8.79157 32.1705C8.56242 32.1705 8.34914 32.0255 8.27313 31.7964L6.91906 27.7359C6.82336 27.4493 6.97812 27.1392 7.26469 27.0441C7.55344 26.9484 7.86078 27.1031 7.95649 27.3897L9.31055 31.4502C9.40625 31.7368 9.25149 32.0469 8.96493 32.142C8.90696 32.1617 8.84899 32.1705 8.79157 32.1705Z" fill="black"/>
<path d="M4.73048 30.817C4.59048 30.817 4.45048 30.7634 4.34384 30.6567C4.13001 30.4429 4.13001 30.0973 4.34384 29.8835L7.05087 27.177C7.2647 26.9631 7.61033 26.9631 7.82416 27.177C8.03798 27.3908 8.03798 27.7364 7.82416 27.9503L5.11712 30.6567C5.01048 30.7634 4.87048 30.817 4.73048 30.817Z" fill="black"/>
<path d="M21.6694 3.29216C21.5507 3.29216 21.4309 3.27685 21.3139 3.24513C21.0219 3.16693 20.8485 2.86779 20.9267 2.57576C21.0049 2.28373 21.3074 2.10982 21.5961 2.18857C21.6677 2.20771 21.7416 2.19787 21.805 2.16123C21.8411 2.14044 21.9067 2.09123 21.9308 1.99716C21.9505 1.92498 21.9412 1.8506 21.904 1.78716C21.8684 1.72482 21.8094 1.67998 21.7388 1.66084C21.4468 1.58263 21.2734 1.28349 21.3516 0.99146C21.4299 0.699429 21.7334 0.526616 22.021 0.604272C22.3743 0.698335 22.6696 0.924741 22.8523 1.24084C23.0344 1.55693 23.0825 1.92552 22.9879 2.2788C22.8944 2.63154 22.668 2.9263 22.3508 3.10896C22.1397 3.22982 21.9067 3.29216 21.6694 3.29216Z" fill="black"/>
<path d="M17.4721 34.9939C15.9693 34.9939 14.4566 34.8009 12.9718 34.4044C12.6804 34.3268 12.5064 34.0271 12.5846 33.735C12.6629 33.443 12.9669 33.2702 13.254 33.3478C18.901 34.8556 24.9752 33.2275 29.103 29.0992C32.2016 26.0006 33.9078 21.8804 33.9078 17.4978C33.9078 13.1151 32.2016 8.9955 29.103 5.89691C28.8892 5.68308 28.8892 5.33746 29.103 5.12363C29.3168 4.9098 29.6624 4.9098 29.8763 5.12363C33.1816 8.42839 35.0021 12.8231 35.0016 17.4983C35.0016 22.173 33.1816 26.5671 29.8763 29.8725C26.5584 33.1903 22.0636 34.9939 17.4721 34.9939Z" fill="black"/>
<path d="M17.4754 33.3534C16.1154 33.3534 14.7465 33.179 13.4018 32.8202C13.1103 32.7426 12.9364 32.4434 13.0146 32.1509C13.0928 31.8583 13.393 31.686 13.684 31.7637C18.7639 33.1172 24.2293 31.6532 27.9432 27.9394C33.7001 22.1824 33.7001 12.8144 27.9432 7.05694C27.7293 6.84312 27.7293 6.49749 27.9432 6.28366C28.157 6.06983 28.5026 6.06983 28.7165 6.28366C34.9005 12.4677 34.9005 22.5286 28.7165 28.7126C25.7108 31.7194 21.6361 33.3534 17.4754 33.3534Z" fill="black"/>
<path d="M30.27 5.27679C30.2132 5.27679 30.1546 5.26749 30.0972 5.24835L26.0361 3.89484C25.7501 3.79968 25.5948 3.49015 25.6905 3.20304C25.7857 2.91703 26.0935 2.76062 26.3823 2.85742L30.4434 4.21093C30.7294 4.30609 30.8847 4.61562 30.789 4.90273C30.7119 5.13242 30.4992 5.27679 30.27 5.27679Z" fill="black"/>
<path d="M27.5626 7.98437C27.3334 7.98437 27.1201 7.83944 27.0441 7.6103L25.6901 3.54976C25.5944 3.26319 25.7491 2.95312 26.0357 2.85796C26.3244 2.76116 26.6318 2.91702 26.7275 3.20358L28.0815 7.26413C28.1772 7.55069 28.0225 7.86077 27.7359 7.95593C27.6779 7.97507 27.62 7.98437 27.5626 7.98437Z" fill="black"/>
<path d="M27.5625 7.98439C27.4225 7.98439 27.2825 7.9308 27.1759 7.82416C26.962 7.61033 26.962 7.2647 27.1759 7.05087L29.8829 4.34384C30.0967 4.13001 30.4423 4.13001 30.6562 4.34384C30.87 4.55767 30.87 4.9033 30.6562 5.11712L27.9492 7.82416C27.8425 7.9308 27.7025 7.98439 27.5625 7.98439Z" fill="black"/>
<path d="M13.1212 34.4148C13.0742 34.4148 13.0272 34.4088 12.9796 34.3962C12.6263 34.3022 12.3315 34.0763 12.1489 33.7607C11.9657 33.4447 11.9175 33.0755 12.0122 32.7222C12.2052 31.9965 12.9528 31.5629 13.6861 31.7548C13.9776 31.8325 14.1521 32.1316 14.0744 32.4242C13.9968 32.7157 13.6971 32.889 13.405 32.8125C13.2574 32.7731 13.1076 32.8595 13.0693 33.0044C13.0496 33.0766 13.0589 33.151 13.0961 33.2139C13.1322 33.2762 13.1912 33.3211 13.2618 33.3402C13.5533 33.4179 13.7272 33.717 13.649 34.0096C13.5839 34.2535 13.3629 34.4148 13.1212 34.4148Z" fill="black"/>
<path d="M25.7004 25.1562H9.29419C8.99177 25.1562 8.74731 24.9117 8.74731 24.6093V12.0284C8.74731 11.726 8.99177 11.4816 9.29419 11.4816H25.7004C26.0029 11.4816 26.2473 11.726 26.2473 12.0284V24.6093C26.2473 24.9117 26.0029 25.1562 25.7004 25.1562ZM9.84106 24.0624H25.1536V12.5753H9.84106V24.0624Z" fill="black"/>
<path d="M9.29408 12.5754C9.15408 12.5754 9.01408 12.5218 8.90744 12.4152C8.69361 12.2013 8.69361 11.8557 8.90744 11.6419L11.0955 9.45273C11.3093 9.2389 11.6549 9.2389 11.8688 9.45273C12.0826 9.66656 12.0826 10.0122 11.8688 10.226L9.68072 12.4152C9.57408 12.5218 9.43408 12.5754 9.29408 12.5754Z" fill="black"/>
<path d="M25.7003 12.5754C25.5603 12.5754 25.4203 12.5218 25.3137 12.4152L23.1251 10.226C22.9113 10.0122 22.9113 9.66656 23.1251 9.45273C23.3389 9.2389 23.6845 9.2389 23.8984 9.45273L26.087 11.6419C26.3008 11.8557 26.3008 12.2013 26.087 12.4152C25.9803 12.5218 25.8403 12.5754 25.7003 12.5754Z" fill="black"/>
<path d="M23.5118 10.3862H11.4822C11.1798 10.3862 10.9353 10.1418 10.9353 9.83936C10.9353 9.53693 11.1798 9.29248 11.4822 9.29248H23.5118C23.8142 9.29248 24.0587 9.53693 24.0587 9.83936C24.0587 10.1418 23.8142 10.3862 23.5118 10.3862Z" fill="black"/>
<path d="M15.848 12.5754C15.8031 12.5754 15.7583 12.5699 15.7129 12.5584C15.4203 12.4841 15.2431 12.1866 15.3175 11.894L15.8737 9.70483C15.9475 9.41116 16.245 9.23343 16.5381 9.30944C16.8307 9.38382 17.0079 9.68132 16.9335 9.9739L16.3773 12.163C16.315 12.4108 16.0924 12.5754 15.848 12.5754Z" fill="black"/>
<path d="M19.1379 12.5754C18.8929 12.5754 18.6703 12.4097 18.608 12.1609L18.0611 9.97172C17.9873 9.67914 18.1656 9.38218 18.4592 9.3089C18.7507 9.23398 19.0488 9.41336 19.122 9.70703L19.6689 11.8962C19.7427 12.1887 19.5645 12.4857 19.2708 12.559C19.2265 12.5699 19.1817 12.5754 19.1379 12.5754Z" fill="black"/>
<path d="M15.8567 15.313C15.5543 15.313 15.3098 15.0685 15.3098 14.7661V12.0284C15.3098 11.726 15.5543 11.4816 15.8567 11.4816C16.1591 11.4816 16.4036 11.726 16.4036 12.0284V14.7661C16.4036 15.0685 16.1591 15.313 15.8567 15.313Z" fill="black"/>
<path d="M15.8588 15.313C15.6303 15.313 15.417 15.1686 15.3404 14.94C15.2442 14.654 15.3984 14.3434 15.6849 14.2472L17.3146 13.7003C17.4273 13.6631 17.5492 13.6626 17.6608 13.6997L19.3107 14.2466C19.5973 14.3418 19.7531 14.6508 19.658 14.9379C19.5628 15.225 19.2544 15.3786 18.9667 15.2851L17.4902 14.7951L16.0333 15.2846C15.9753 15.3037 15.9163 15.313 15.8588 15.313Z" fill="black"/>
<path d="M19.1384 15.313C18.836 15.313 18.5916 15.0685 18.5916 14.7661V12.0284C18.5916 11.726 18.836 11.4816 19.1384 11.4816C19.4408 11.4816 19.6853 11.726 19.6853 12.0284V14.7661C19.6853 15.0685 19.4408 15.313 19.1384 15.313Z" fill="black"/>
<path d="M15.8572 21.3276H11.4822C11.1798 21.3276 10.9353 21.0832 10.9353 20.7808C10.9353 20.4783 11.1798 20.2339 11.4822 20.2339H15.8572C16.1596 20.2339 16.4041 20.4783 16.4041 20.7808C16.4041 21.0832 16.1596 21.3276 15.8572 21.3276Z" fill="black"/>
<path d="M13.6697 22.9683H11.4822C11.1798 22.9683 10.9353 22.7238 10.9353 22.4214C10.9353 22.119 11.1798 21.8745 11.4822 21.8745H13.6697C13.9721 21.8745 14.2166 22.119 14.2166 22.4214C14.2166 22.7238 13.9721 22.9683 13.6697 22.9683Z" fill="black"/>
<path d="M20.2311 22.9683H18.5905C18.288 22.9683 18.0436 22.7238 18.0436 22.4214V20.7808C18.0436 20.4783 18.288 20.2339 18.5905 20.2339H20.2311C20.5335 20.2339 20.778 20.4783 20.778 20.7808V22.4214C20.778 22.7238 20.5335 22.9683 20.2311 22.9683ZM19.1373 21.8745H19.6842V21.3276H19.1373V21.8745Z" fill="black"/>
<path d="M23.5156 22.9683H21.875C21.5726 22.9683 21.3281 22.7238 21.3281 22.4214V20.7808C21.3281 20.4783 21.5726 20.2339 21.875 20.2339H23.5156C23.818 20.2339 24.0625 20.4783 24.0625 20.7808V22.4214C24.0625 22.7238 23.818 22.9683 23.5156 22.9683ZM22.4219 21.8745H22.9688V21.3276H22.4219V21.8745Z" fill="black"/>
</g>
<defs>
<clipPath id="clip0">
<rect width="35" height="35" fill="white"/>
</clipPath>
</defs>
</svg>
