<svg width="35" height="35" viewBox="0 0 35 35" fill="none" xmlns="http://www.w3.org/2000/svg">
<g clip-path="url(#clip0)">
<path d="M27.7557 28.1034C29.353 28.1034 30.6478 26.8085 30.6478 25.2112C30.6478 23.6139 29.353 22.3191 27.7557 22.3191C26.1584 22.3191 24.8635 23.6139 24.8635 25.2112C24.8635 26.8085 26.1584 28.1034 27.7557 28.1034Z" fill="#2A4A97"/>
<path d="M9.3631 28.1034C10.9604 28.1034 12.2552 26.8085 12.2552 25.2112C12.2552 23.6139 10.9604 22.3191 9.3631 22.3191C7.76581 22.3191 6.47095 23.6139 6.47095 25.2112C6.47095 26.8085 7.76581 28.1034 9.3631 28.1034Z" fill="#2A4A97"/>
<path d="M12.2512 25.2955H24.868C24.8671 25.2673 24.8637 25.2397 24.8637 25.2113C24.8637 24.6197 25.0421 24.0701 25.3469 23.6119H11.7721C12.077 24.0701 12.2553 24.6197 12.2553 25.2113C12.2554 25.2397 12.2518 25.2673 12.2512 25.2955Z" fill="#C5E3FF"/>
<path d="M34.2087 23.6119H30.1647C30.4696 24.0701 30.6478 24.6197 30.6478 25.2113C30.6478 25.2397 30.6444 25.2672 30.6436 25.2955H34.2087C34.457 25.2955 34.6583 25.0942 34.6583 24.8458V24.0615C34.6583 23.8132 34.4571 23.6119 34.2087 23.6119Z" fill="#C5E3FF"/>
<path d="M6.47108 25.2113C6.47108 24.6197 6.6495 24.0701 6.95425 23.6119H3.87862C3.63034 23.6119 3.42896 23.8132 3.42896 24.0616V24.846C3.42896 25.0942 3.6302 25.2956 3.87862 25.2956H6.47546C6.47464 25.2673 6.47108 25.2397 6.47108 25.2113Z" fill="#C5E3FF"/>
<path d="M22.7447 6.89661H4.56753C4.21753 6.89661 3.93384 7.1803 3.93384 7.5303V23.6118H6.95409C7.47226 22.833 8.35724 22.3192 9.36294 22.3192C10.3686 22.3192 11.2536 22.833 11.7718 23.6118H23.3781V7.5303C23.3784 7.1803 23.0947 6.89661 22.7447 6.89661Z" fill="#FC3850"/>
<path d="M33.5451 20.1141H32.3801C32.0775 20.1141 31.8321 19.8688 31.8321 19.5661V18.8251C31.8321 18.5225 32.0774 18.2771 32.3801 18.2771H33.4224L30.3221 13.4119C30.1426 13.1302 29.8317 12.9596 29.4977 12.9596H23.3785V23.6119H25.3469C25.865 22.833 26.75 22.3192 27.7557 22.3192C28.7614 22.3192 29.6464 22.833 30.1646 23.6119H33.7731V20.0629C33.7035 20.0951 33.6268 20.1141 33.5451 20.1141Z" fill="#C5E3FF"/>
<path d="M31.8323 18.825C31.8323 18.5225 32.0775 18.277 32.3802 18.277H33.4226L31.2616 14.8859H25.9078C25.6691 14.8859 25.4739 15.0811 25.4739 15.3198V18.8323C25.4739 19.071 25.6691 19.2662 25.9078 19.2662H31.8324V18.825H31.8323Z" fill="#45BDF0"/>
<path d="M27.7558 26.3837C28.4033 26.3837 28.9283 25.8587 28.9283 25.2112C28.9283 24.5636 28.4033 24.0387 27.7558 24.0387C27.1082 24.0387 26.5833 24.5636 26.5833 25.2112C26.5833 25.8587 27.1082 26.3837 27.7558 26.3837Z" fill="#C5E3FF"/>
<path d="M9.36305 26.3837C10.0106 26.3837 10.5356 25.8587 10.5356 25.2112C10.5356 24.5636 10.0106 24.0387 9.36305 24.0387C8.7155 24.0387 8.19055 24.5636 8.19055 25.2112C8.19055 25.8587 8.7155 26.3837 9.36305 26.3837Z" fill="#C5E3FF"/>
<path d="M33.545 18.2771H32.38C32.0774 18.2771 31.832 18.5224 31.832 18.8251V19.5661C31.832 19.8686 32.0773 20.1141 32.38 20.1141H33.545C33.8475 20.1141 34.0929 19.8688 34.0929 19.5661V18.8251C34.0929 18.5225 33.8477 18.2771 33.545 18.2771Z" fill="#2A4A97"/>
<path d="M27.7557 28.4452C25.9726 28.4452 24.5219 26.9944 24.5219 25.2114C24.5219 23.4281 25.9726 21.9774 27.7557 21.9774C29.5389 21.9774 30.9896 23.4281 30.9896 25.2114C30.9896 26.9944 29.5389 28.4452 27.7557 28.4452ZM27.7557 22.661C26.3494 22.661 25.2054 23.8051 25.2054 25.2114C25.2054 26.6177 26.3495 27.7616 27.7557 27.7616C29.1618 27.7616 30.306 26.6175 30.306 25.2114C30.306 23.8052 29.1618 22.661 27.7557 22.661Z" fill="black"/>
<path d="M9.3632 28.4452C7.58012 28.4452 6.12939 26.9944 6.12939 25.2114C6.12939 23.4281 7.58012 21.9774 9.3632 21.9774C11.1464 21.9774 12.5971 23.4281 12.5971 25.2114C12.5971 26.9944 11.1464 28.4452 9.3632 28.4452ZM9.3632 22.661C7.95691 22.661 6.81299 23.8051 6.81299 25.2114C6.81299 26.6177 7.95705 27.7616 9.3632 27.7616C10.7694 27.7616 11.9136 26.6175 11.9136 25.2114C11.9136 23.8052 10.7695 22.661 9.3632 22.661Z" fill="black"/>
<path d="M24.8677 25.6373H12.2509C12.1586 25.6373 12.0702 25.5999 12.0059 25.5338C11.9415 25.4676 11.9067 25.378 11.9093 25.2859C11.9097 25.2688 11.9109 25.2519 11.912 25.235C11.9125 25.2271 11.9134 25.2193 11.9134 25.2114C11.9134 24.7077 11.7661 24.2202 11.4874 23.8014C11.4176 23.6965 11.4112 23.5617 11.4707 23.4507C11.5301 23.3397 11.6459 23.2704 11.772 23.2704H25.3467C25.4726 23.2704 25.5885 23.3397 25.648 23.4507C25.7075 23.5617 25.701 23.6965 25.6313 23.8014C25.3525 24.2202 25.2053 24.7078 25.2053 25.2114C25.2053 25.2196 25.2061 25.2275 25.2067 25.2356C25.2078 25.2523 25.2089 25.2691 25.2094 25.2859C25.212 25.3782 25.1771 25.4676 25.1127 25.5338C25.0485 25.5999 24.96 25.6373 24.8677 25.6373ZM12.5868 24.9537H24.532C24.5593 24.6079 24.6419 24.271 24.7761 23.9537H12.3427C12.4769 24.271 12.5595 24.6079 12.5868 24.9537Z" fill="black"/>
<path d="M34.2086 25.6373H30.6435C30.5512 25.6373 30.4628 25.5999 30.3985 25.5338C30.3341 25.4676 30.2992 25.378 30.3018 25.2859C30.3023 25.2688 30.3035 25.2519 30.3046 25.235C30.3051 25.2272 30.3059 25.2193 30.3059 25.2114C30.3059 24.7077 30.1586 24.2202 29.8799 23.8014C29.8101 23.6965 29.8036 23.5617 29.8631 23.4507C29.9226 23.3397 30.0384 23.2704 30.1644 23.2704H34.2086C34.645 23.2704 35 23.6254 35 24.0619V24.8462C35 25.2822 34.645 25.6373 34.2086 25.6373ZM30.9794 24.9537H34.2087C34.2682 24.9537 34.3166 24.9053 34.3166 24.8458V24.0614C34.3166 24.002 34.2682 23.9536 34.2087 23.9536H30.7352C30.8695 24.2709 30.9521 24.6079 30.9794 24.9537Z" fill="black"/>
<path d="M6.47546 25.6372H3.87862C3.44222 25.6372 3.08716 25.2821 3.08716 24.8457V24.0614C3.08716 23.625 3.44222 23.2699 3.87862 23.2699H6.95438C7.0803 23.2699 7.19624 23.3392 7.25571 23.4502C7.31518 23.5612 7.30876 23.6961 7.23903 23.8009C6.96026 24.2197 6.81302 24.7074 6.81302 25.2109C6.81302 25.2191 6.81384 25.2272 6.81438 25.2354C6.81548 25.2518 6.81657 25.268 6.81712 25.2846C6.81999 25.377 6.78526 25.4667 6.72087 25.533C6.65647 25.5997 6.56788 25.6372 6.47546 25.6372ZM3.87862 23.9536C3.81915 23.9536 3.77075 24.002 3.77075 24.0615V24.8459C3.77075 24.9053 3.81915 24.9537 3.87862 24.9537H6.13954C6.16688 24.608 6.24946 24.2711 6.38372 23.9538H3.87862V23.9536Z" fill="black"/>
<path d="M23.3784 23.9536H11.7719C11.6575 23.9536 11.5507 23.8965 11.4873 23.8012C11.0122 23.0871 10.2181 22.6609 9.36294 22.6609C8.5079 22.6609 7.7137 23.0872 7.2386 23.8012C7.1753 23.8965 7.06839 23.9536 6.95396 23.9536H3.93384C3.74503 23.9536 3.59204 23.8006 3.59204 23.6118V7.53028C3.59204 6.99243 4.02968 6.55493 4.56753 6.55493H22.7447C23.2826 6.55493 23.7202 6.99243 23.7202 7.53028V23.6118C23.7202 23.8006 23.5671 23.9536 23.3784 23.9536ZM11.9487 23.27H23.0365V7.53028C23.0365 7.36936 22.9055 7.23852 22.7446 7.23852H4.56753C4.40661 7.23852 4.27563 7.3695 4.27563 7.53028V23.27H6.77731C7.38763 22.4572 8.34083 21.9772 9.36294 21.9772C10.385 21.9772 11.3384 22.4572 11.9487 23.27Z" fill="black"/>
<path d="M33.7731 23.9537H30.1644C30.0499 23.9537 29.9432 23.8965 29.8797 23.8012C29.4048 23.0872 28.6106 22.661 27.7554 22.661C26.9003 22.661 26.1061 23.0873 25.631 23.8012C25.5677 23.8965 25.4608 23.9537 25.3464 23.9537H23.3781C23.1892 23.9537 23.0363 23.8007 23.0363 23.6119V12.9597C23.0363 12.7709 23.1892 12.6179 23.3781 12.6179H29.4972C29.9504 12.6179 30.3663 12.8461 30.6099 13.2282L33.7103 18.0935C33.7773 18.1988 33.7817 18.3322 33.7217 18.4415C33.6616 18.5508 33.5468 18.6189 33.422 18.6189H32.3796C32.266 18.6189 32.1736 18.7113 32.1736 18.8251V19.5661C32.1736 19.6797 32.266 19.7721 32.3796 19.7721H33.5446C33.5726 19.7721 33.6013 19.7654 33.6298 19.7523C33.7355 19.7036 33.8588 19.7121 33.9571 19.775C34.0551 19.8378 34.1144 19.9463 34.1144 20.0628V23.6117C34.1149 23.8007 33.9619 23.9537 33.7731 23.9537ZM30.3413 23.2701H33.4314V20.4559H32.3802C31.8896 20.4559 31.4905 20.0568 31.4905 19.5662V18.8252C31.4905 18.3347 31.8896 17.9355 32.3802 17.9355H32.7993L30.0338 13.5957C29.9165 13.4116 29.7161 13.3017 29.4976 13.3017H23.7203V23.2704H25.17C25.7803 22.4576 26.7335 21.9775 27.7557 21.9775C28.7778 21.9774 29.731 22.4573 30.3413 23.2701Z" fill="black"/>
<path d="M26.6041 20.8796H25.7563C25.5675 20.8796 25.4146 20.7266 25.4146 20.5378C25.4146 20.349 25.5675 20.196 25.7563 20.196H26.6041C26.7929 20.196 26.9459 20.349 26.9459 20.5378C26.9459 20.7266 26.7929 20.8796 26.6041 20.8796Z" fill="black"/>
<path d="M1.81604 16.2349H0.341797C0.152988 16.2349 0 16.0819 0 15.8931C0 15.7043 0.152988 15.5513 0.341797 15.5513H1.81604C2.00484 15.5513 2.15783 15.7043 2.15783 15.8931C2.15783 16.0819 2.00484 16.2349 1.81604 16.2349Z" fill="black"/>
<path d="M1.81604 18.7305H0.341797C0.152988 18.7305 0 18.5775 0 18.3887C0 18.1999 0.152988 18.0469 0.341797 18.0469H1.81604C2.00484 18.0469 2.15783 18.1999 2.15783 18.3887C2.15783 18.5775 2.00484 18.7305 1.81604 18.7305Z" fill="black"/>
<path d="M1.81604 21.2263H0.341797C0.152988 21.2263 0 21.0733 0 20.8845C0 20.6957 0.152988 20.5427 0.341797 20.5427H1.81604C2.00484 20.5427 2.15783 20.6957 2.15783 20.8845C2.15783 21.0733 2.00484 21.2263 1.81604 21.2263Z" fill="black"/>
<path d="M1.81604 8.74792H0.341797C0.152988 8.74792 0 8.59494 0 8.40613C0 8.21732 0.152988 8.06433 0.341797 8.06433H1.81604C2.00484 8.06433 2.15783 8.21732 2.15783 8.40613C2.15783 8.59494 2.00484 8.74792 1.81604 8.74792Z" fill="black"/>
<path d="M1.81604 11.2437H0.341797C0.152988 11.2437 0 11.0907 0 10.9019C0 10.713 0.152988 10.5601 0.341797 10.5601H1.81604C2.00484 10.5601 2.15783 10.713 2.15783 10.9019C2.15783 11.0907 2.00484 11.2437 1.81604 11.2437Z" fill="black"/>
<path d="M1.81604 13.7393H0.341797C0.152988 13.7393 0 13.5863 0 13.3975C0 13.2087 0.152988 13.0557 0.341797 13.0557H1.81604C2.00484 13.0557 2.15783 13.2087 2.15783 13.3975C2.15783 13.5863 2.00484 13.7393 1.81604 13.7393Z" fill="black"/>
<path d="M1.81604 23.7219H0.341797C0.152988 23.7219 0 23.5689 0 23.3801C0 23.1913 0.152988 23.0383 0.341797 23.0383H1.81604C2.00484 23.0383 2.15783 23.1913 2.15783 23.3801C2.15783 23.5689 2.00484 23.7219 1.81604 23.7219Z" fill="black"/>
<path d="M31.8323 19.6081H25.9077C25.48 19.6081 25.1321 19.2602 25.1321 18.8324V15.3199C25.1321 14.8923 25.48 14.5443 25.9077 14.5443H31.2615C31.3782 14.5443 31.4869 14.6039 31.5497 14.7024L33.7106 18.0935C33.7776 18.1988 33.782 18.3322 33.722 18.4416C33.662 18.551 33.5471 18.6191 33.4223 18.6191H32.38C32.2663 18.6191 32.1739 18.7115 32.1739 18.8252V19.2664C32.1741 19.4551 32.0211 19.6081 31.8323 19.6081ZM25.9077 15.2278C25.8578 15.2278 25.8157 15.27 25.8157 15.3198V18.8322C25.8157 18.8821 25.8578 18.9244 25.9077 18.9244H31.4905V18.825C31.4905 18.3344 31.8895 17.9352 32.3801 17.9352H32.7993L31.0739 15.2276H25.9077V15.2278Z" fill="black"/>
<path d="M27.7558 26.7255C26.9208 26.7255 26.2415 26.0461 26.2415 25.2112C26.2415 24.3763 26.9208 23.6969 27.7558 23.6969C28.5907 23.6969 29.2701 24.3763 29.2701 25.2112C29.2701 26.0461 28.5907 26.7255 27.7558 26.7255ZM27.7558 24.3806C27.2977 24.3806 26.925 24.7533 26.925 25.2113C26.925 25.6693 27.2977 26.042 27.7558 26.042C28.2138 26.042 28.5865 25.6693 28.5865 25.2113C28.5865 24.7533 28.2138 24.3806 27.7558 24.3806Z" fill="black"/>
<path d="M9.36305 26.7255C8.52811 26.7255 7.84875 26.0461 7.84875 25.2112C7.84875 24.3763 8.52811 23.6969 9.36305 23.6969C10.198 23.6969 10.8774 24.3763 10.8774 25.2112C10.8774 26.0461 10.198 26.7255 9.36305 26.7255ZM9.36305 24.3806C8.90505 24.3806 8.53235 24.7533 8.53235 25.2113C8.53235 25.6693 8.90505 26.042 9.36305 26.042C9.8212 26.042 10.1938 25.6693 10.1938 25.2113C10.1938 24.7533 9.82106 24.3806 9.36305 24.3806Z" fill="black"/>
<path d="M33.5451 20.4558H32.3801C31.8896 20.4558 31.4905 20.0568 31.4905 19.5662V18.8252C31.4905 18.3346 31.8896 17.9354 32.3801 17.9354H33.5451C34.0356 17.9354 34.4348 18.3345 34.4348 18.8252V19.5662C34.4348 20.0568 34.0358 20.4558 33.5451 20.4558ZM32.3801 18.6189C32.2665 18.6189 32.1741 18.7113 32.1741 18.8251V19.5661C32.1741 19.6797 32.2665 19.7721 32.3801 19.7721H33.5451C33.6588 19.7721 33.7513 19.6797 33.7513 19.5661V18.8251C33.7513 18.7113 33.6588 18.6189 33.5451 18.6189H32.3801Z" fill="black"/>
</g>
<defs>
<clipPath id="clip0">
<rect width="35" height="35" fill="white"/>
</clipPath>
</defs>
</svg>
