<svg width="175" height="175" viewBox="0 0 175 175" fill="none" xmlns="http://www.w3.org/2000/svg">
<rect width="175" height="175" rx="20" fill="white"/>
<g clip-path="url(#clip0)">
<path d="M15 69.3428H16.972V88.8095H15V69.3428Z" fill="#41414A"/>
<path d="M36.2859 69.3428V86.2952L23.6032 69.3428H21.2832V88.8095H23.2552V71.8381L35.9379 88.8095H38.2385V69.3428H36.2859Z" fill="#41414A"/>
<path d="M57.4944 69.3428V86.2952L44.8117 69.3428H42.4917V88.8095H44.4444V71.8381L57.127 88.8095H59.447V69.3428H57.4944Z" fill="#41414A"/>
<path d="M158.028 69.3428V86.2952L145.365 69.3428H143.025V88.8095H144.997V71.8381L157.68 88.8095H160V69.3428H158.028Z" fill="#41414A"/>
<path d="M63.9712 79.1905C63.9712 74.3333 67.9732 70.7714 72.4199 70.7714C77.0792 70.7714 80.8879 74.5619 80.8879 79.1143C80.8879 83.7429 76.9632 87.4 72.4199 87.4C67.8379 87.381 63.9712 83.6286 63.9712 79.1905ZM62.0186 79.1905C62.0186 84.6571 66.8326 89.1524 72.4199 89.1524C77.9299 89.1524 82.8405 84.8095 82.8405 79.0762C82.8405 73.3429 77.9492 69 72.4199 69C67.1806 69 62.0186 73.0571 62.0186 79.1905Z" fill="#41414A"/>
<path d="M104.494 83.7048C102.387 87.5143 98.5781 89.1524 95.4267 89.1524C89.9167 89.1524 85.1221 84.8667 85.1221 79.1143C85.1221 73.3429 89.7814 69.0381 95.4074 69.0381C100.453 69.0381 103.663 72.5429 104.436 74.3524H102.193C100.047 71.1715 96.5481 70.8096 95.3494 70.8096C90.7481 70.8096 87.0747 74.8096 87.0747 79.1524C87.0747 83.7048 91.1154 87.4001 95.3881 87.4001C96.3741 87.4001 99.5834 87.2667 102.29 83.7239H104.494V83.7048Z" fill="#41414A"/>
<path d="M107.491 69.3428H119.284V71.0952H109.463V78.1047H118.975V79.8571H109.463V87.0381H119.284V88.8095H107.491V69.3428Z" fill="#41414A"/>
<path d="M138.018 88.8095H140.125L131.715 69.3428H131.619H129.608H129.511L121.14 88.8095H123.247L126.089 82.219H135.176L138.018 88.8095ZM126.843 80.4666L130.633 71.6666L134.422 80.4666H126.843Z" fill="#41414A"/>
<path d="M45.7402 94.6381H46.8036L49.3169 103.514H49.3362L51.7916 94.6381H52.7582L55.2136 103.514H55.2522L57.7656 94.6381H58.8096L55.8516 104.829H54.5369L52.2749 96.4667H52.2556L49.9936 104.829H48.6596L45.7402 94.6381Z" fill="#41414A"/>
<path d="M60.1047 99.781C60.1047 97.2476 62.1927 95.381 64.5127 95.381C66.9487 95.381 68.9401 97.3619 68.9401 99.7429C68.9401 102.162 66.8907 104.086 64.5127 104.086C62.1154 104.086 60.1047 102.105 60.1047 99.781ZM59.0801 99.781C59.0801 102.638 61.5934 105 64.5321 105C67.4127 105 69.9841 102.733 69.9841 99.7238C69.9841 96.7333 67.4321 94.4476 64.5321 94.4476C61.7674 94.4476 59.0801 96.581 59.0801 99.781Z" fill="#41414A"/>
<path d="M71.3184 94.6381H73.9284C75.301 94.6381 75.997 94.8096 76.461 95.0191C77.621 95.5524 78.2977 96.6762 78.2977 97.9334C78.2977 99.4 77.2344 100.905 75.243 101.038L78.1624 104.848H76.867L73.3677 100.238C74.6824 100.238 75.127 100.219 75.591 100.086C76.7317 99.7619 77.2924 98.8286 77.2924 97.9334C77.2924 97.1334 76.8284 96.3143 76.171 95.9715C75.5524 95.6476 75.0304 95.5905 74.1604 95.5905H72.3624V104.848H71.3377V94.6381H71.3184Z" fill="#41414A"/>
<path d="M79.9407 94.6381H80.9654V103.914H85.2187V104.829H79.9214V94.6381H79.9407Z" fill="#41414A"/>
<path d="M87.2879 95.5524H88.7765C90.2845 95.5524 91.2512 95.7429 92.1792 96.3334C93.2425 97.1143 93.9385 98.3524 93.9385 99.7048C93.9385 101.495 92.9525 102.543 92.3145 103.057C91.1352 103.895 89.7045 103.895 88.7765 103.895H87.2879V95.5524ZM86.2632 104.829H89.2792C90.5552 104.829 91.7925 104.524 92.6432 103.99C94.6152 102.752 94.9825 100.714 94.9825 99.7619C94.9825 98.5429 94.4605 96.6 92.6432 95.4762C91.8119 94.9429 90.5552 94.6381 89.2792 94.6381H86.2632V104.829Z" fill="#41414A"/>
<path d="M95.6201 94.6381H96.6834L99.1968 103.514H99.2354L101.691 94.6381H102.657L105.132 103.514H105.151L107.684 94.6381H108.728L105.77 104.829H104.455L102.193 96.4667H102.155L99.8734 104.829H98.5588L95.6201 94.6381Z" fill="#41414A"/>
<path d="M109.907 94.6381H110.931V104.829H109.907V94.6381Z" fill="#41414A"/>
<path d="M114.045 95.5524H115.533C117.041 95.5524 118.008 95.7429 118.936 96.3334C119.999 97.1143 120.695 98.3524 120.695 99.7048C120.695 101.495 119.709 102.543 119.071 103.057C117.892 103.895 116.461 103.895 115.533 103.895H114.045V95.5524ZM113.02 104.829H116.036C117.312 104.829 118.549 104.524 119.4 103.99C121.372 102.752 121.739 100.714 121.739 99.7619C121.739 98.5429 121.217 96.6 119.4 95.4762C118.569 94.9429 117.312 94.6381 116.036 94.6381H113.02V104.829Z" fill="#41414A"/>
<path d="M123.325 94.6381H128.97V95.5715H124.369V99.2286H128.835V100.143H124.369V103.914H128.97V104.829H123.325V94.6381Z" fill="#41414A"/>
</g>
<defs>
<clipPath id="clip0">
<rect width="145" height="36" fill="white" transform="translate(15 69)"/>
</clipPath>
</defs>
</svg>
