<svg width="175" height="175" viewBox="0 0 175 175" fill="none" xmlns="http://www.w3.org/2000/svg">
<rect width="175" height="175" rx="20" fill="white"/>
<path d="M15 77H19.1373V93.8H48.1373V98H15V77Z" fill="#41414A"/>
<path d="M85.4313 77H52.2939V81.2H85.4313V77Z" fill="#41414A"/>
<path d="M160 77H126.862V81.2H160V77Z" fill="#41414A"/>
<path d="M52.2939 85.4V97.9999H56.4313V89.6H81.2939V97.9999H85.4313V85.4H52.2939Z" fill="#41414A"/>
<path d="M89.5684 77V81.2H118.568V85.4H122.706V77H89.5684Z" fill="#41414A"/>
<path d="M89.5684 98V93.8H118.568V89.6H122.706V98H89.5684Z" fill="#41414A"/>
<path d="M118.568 85.4H89.5684V89.6H118.568V85.4Z" fill="#41414A"/>
<path d="M126.862 85.4V89.6H155.862V93.8H126.862V97.9999H160V85.4H126.862Z" fill="#41414A"/>
</svg>
