<svg width="175" height="175" viewBox="0 0 175 175" fill="none" xmlns="http://www.w3.org/2000/svg">
<rect width="175" height="175" rx="20" fill="white"/>
<g clip-path="url(#clip0)">
<path d="M80.8582 89.2829C80.8582 86.6765 79.8542 84.3268 78.2131 82.6682C76.5719 80.9899 74.2936 80.0026 71.7836 80.0026C71.7643 80.0026 71.7257 80.0026 71.7064 80.0026C68.8296 80.0026 66.5513 81.7402 66.5513 81.7797C66.4354 80.9307 65.528 80.1408 64.6012 80.1408C63.5007 80.1606 62.6511 81.0294 62.6318 82.1351V103.006C62.6511 104.112 63.5007 105 64.5626 105C65.6631 104.98 66.5127 104.112 66.532 103.006V96.8058C68.0959 98.109 69.7177 98.6224 71.6099 98.6421H71.7257C74.2357 98.6421 76.5333 97.6549 78.1744 95.9963C79.7963 94.3377 80.8003 92.0275 80.8196 89.4408L80.8582 89.2829ZM71.7643 94.7128C68.8489 94.6733 66.5899 92.5014 66.5706 89.3224C66.5899 86.1434 68.8682 83.9517 71.7836 83.9319C74.7763 83.9714 76.9388 86.0842 76.9774 89.3224C76.9195 92.5606 74.757 94.6733 71.7643 94.7128Z" fill="#41414A"/>
<path d="M125.401 82.4115C123.933 80.9108 121.868 80.0025 119.589 79.9828C119.589 79.9828 119.531 79.9828 119.512 79.9828C117.234 80.0025 115.187 80.9108 113.72 82.4115C112.252 83.9121 111.364 86.0051 111.364 88.2955V96.5095C111.384 97.6153 112.233 98.4841 113.295 98.5038C114.396 98.4841 115.245 97.6153 115.264 96.5095V88.256C115.322 85.7484 116.925 83.9911 119.551 83.9516C122.138 83.9911 123.76 85.7681 123.818 88.2758V96.5095C123.837 97.6153 124.686 98.4841 125.768 98.5038C126.868 98.4841 127.718 97.6153 127.737 96.5095V88.2955C127.756 86.0051 126.868 83.9121 125.401 82.4115Z" fill="#41414A"/>
<path d="M105.997 82.7275L105.321 82.0956C103.757 80.7924 101.73 80.0026 99.5095 80.0026C99.5095 80.0026 99.4515 80.0026 99.4322 80.0026C96.8836 80.0026 94.586 81.0491 92.9642 82.7472C91.3423 84.4453 90.377 86.7752 90.377 89.3224V89.3421C90.377 91.8892 91.3423 94.2389 92.9642 95.9173C94.586 97.6154 96.8643 98.6421 99.4322 98.6421H99.6832C99.6832 98.6421 102.753 98.5631 104.684 96.7071L104.742 96.9835C104.954 97.8523 105.707 98.5039 106.615 98.5236C107.715 98.5039 108.565 97.6351 108.584 96.5294V89.2236C108.545 86.6963 107.599 84.4058 105.997 82.7275ZM99.4708 94.7128C96.4202 94.6733 94.3157 92.4619 94.2771 89.3224C94.3157 86.1829 96.4395 83.9714 99.4901 83.9319C102.521 83.9714 104.645 86.1829 104.684 89.3421C104.626 92.4619 102.521 94.6733 99.4708 94.7128Z" fill="#41414A"/>
<path d="M18.9001 76.093C18.9001 75.007 18.012 74.1185 16.9501 74.1185C15.8881 74.0987 15.0193 74.9873 15 76.0733V96.5293C15.0193 97.6153 15.8881 98.5038 16.9501 98.5038C18.012 98.5038 18.8808 97.635 18.9001 96.5491V76.093Z" fill="#41414A"/>
<path d="M87.5774 76.0931C87.5774 75.0071 86.6892 74.1185 85.6273 74.1185C84.5654 74.1185 83.6966 74.9873 83.6772 76.0931V96.5491C83.6966 97.6351 84.5654 98.5236 85.6273 98.5236C86.6892 98.5236 87.5581 97.6548 87.5774 96.5688C87.5774 96.5491 87.5774 76.0931 87.5774 76.0931Z" fill="#41414A"/>
<path d="M25.2134 76.1721C23.804 76.1721 22.6455 77.3568 22.6455 78.7982C22.6455 80.2593 23.7847 81.4243 25.2134 81.4243C26.6422 81.4243 27.7813 80.2396 27.7813 78.7982C27.7813 77.337 26.6229 76.1721 25.2134 76.1721Z" fill="#41414A"/>
<path d="M27.1638 85.6497C27.1638 84.544 26.2757 83.6752 25.2137 83.6752C24.1518 83.6752 23.283 84.544 23.2637 85.6497V96.5491C23.283 97.635 24.1518 98.5236 25.2137 98.5236C26.2757 98.5236 27.1445 97.6548 27.1638 96.5688C27.1638 96.5491 27.1638 85.6497 27.1638 85.6497Z" fill="#41414A"/>
<path d="M156.93 98.5038C156.988 98.5038 157.026 98.5038 157.084 98.5038C158.127 98.5038 158.996 97.6745 159.073 96.6083C159.15 95.4828 158.397 94.5943 157.239 94.4166C155.385 93.9229 155.54 91.9879 155.54 91.2376V85.4127H157.837C158.938 85.4127 159.826 84.5045 159.826 83.379C159.826 82.2535 158.938 81.3452 157.837 81.3452H155.54V76.0338C155.54 74.9083 154.652 74 153.551 74C152.45 74 151.562 74.9083 151.562 76.0338V81.3255H150.5C149.4 81.3255 148.512 82.2338 148.512 83.3592C148.512 84.4847 149.4 85.393 150.5 85.393H151.562V92.5605C151.524 93.2516 151.948 98.5038 156.93 98.5038Z" fill="#41414A"/>
<path d="M39.0573 81.3453C40.1579 81.3453 41.046 82.2535 41.046 83.379C41.046 84.5045 40.1579 85.4128 39.0573 85.4128H36.7018V96.4701C36.7018 97.5956 35.8136 98.5039 34.7131 98.5039C33.6126 98.5039 32.7244 97.5956 32.7244 96.4701V85.4128H31.6625C30.562 85.4128 29.6738 84.5045 29.6738 83.379C29.6738 82.2535 30.562 81.3453 31.6625 81.3453H32.7244C32.7437 80.7726 32.7051 78.0083 33.9794 76.4484C34.4814 75.8363 35.0027 75.2242 35.6978 74.8491C36.6246 74.316 37.6286 74.0988 38.7484 74C39.8489 73.921 40.795 74.7701 40.8915 75.8956C40.9688 77.021 40.1385 78.0083 39.038 78.0873C38.285 78.1465 37.4548 78.7191 37.1845 79.2917C36.9914 79.6669 36.7211 80.2198 36.7211 81.3453H39.0573Z" fill="#41414A"/>
<path d="M51.1632 79.8841C46.3749 79.8841 42.5327 83.9516 42.5327 88.9274C42.5327 89.4013 42.7258 89.8752 43.054 90.2108C43.3822 90.5465 43.8456 90.744 44.309 90.744H58.0174C58.4808 90.744 58.9442 90.5465 59.2724 90.2108C59.6006 89.8752 59.7937 89.4013 59.7937 88.9274C59.7937 83.9516 55.9708 79.8841 51.1632 79.8841ZM46.3749 87.0911C46.819 85.0376 48.9814 83.379 51.1632 83.379C53.345 83.379 55.2371 84.9784 55.9515 87.0911H46.3749Z" fill="#41414A"/>
<path d="M58.2872 92.1459C57.5729 91.6127 56.2986 91.7707 55.7966 92.4618C54.7153 93.9427 53.0549 94.8115 51.1628 94.8115C49.2706 94.8115 47.6102 93.9427 46.5289 92.4618C46.0269 91.7707 44.7526 91.6127 44.0383 92.1459C43.2466 92.7382 43.0922 93.9427 43.6714 94.7522C45.3705 97.1019 48.0928 98.642 51.1628 98.642C54.2327 98.642 56.955 97.1019 58.6541 94.7522C59.2333 93.9624 59.0789 92.7382 58.2872 92.1459Z" fill="#41414A"/>
<path d="M138.916 79.8841C134.108 79.8841 130.285 83.9516 130.285 88.9274C130.285 89.4013 130.478 89.8752 130.806 90.2108C131.135 90.5465 131.598 90.744 132.061 90.744H145.77C146.233 90.744 146.697 90.5465 147.025 90.2108C147.353 89.8752 147.546 89.4013 147.546 88.9274C147.546 83.9516 143.704 79.8841 138.916 79.8841ZM134.127 87.0911C134.571 85.0376 136.734 83.379 138.916 83.379C141.097 83.379 142.99 84.9784 143.704 87.0911H134.127Z" fill="#41414A"/>
<path d="M146.041 92.1459C145.327 91.6127 144.052 91.7707 143.55 92.4618C142.469 93.9427 140.809 94.8115 138.917 94.8115C137.025 94.8115 135.364 93.9427 134.283 92.4618C133.781 91.7707 132.507 91.6127 131.792 92.1459C131.001 92.7382 130.846 93.9427 131.425 94.7522C133.124 97.1019 135.847 98.642 138.917 98.642C141.987 98.642 144.709 97.1019 146.408 94.7522C146.987 93.9624 146.813 92.7382 146.041 92.1459Z" fill="#41414A"/>
</g>
<defs>
<clipPath id="clip0">
<rect width="145" height="31" fill="white" transform="translate(15 74)"/>
</clipPath>
</defs>
</svg>
