<svg width="35" height="35" viewBox="0 0 35 35" fill="none" xmlns="http://www.w3.org/2000/svg">
<path d="M17.5 0C7.83494 0 0 7.83535 0 17.5C0 27.1648 7.83494 35 17.5 35C27.165 35 35 27.1648 35 17.5C35 7.83535 27.165 0 17.5 0ZM17.5 33.9062C8.43903 33.9062 1.09375 26.5609 1.09375 17.5C1.09375 8.43937 8.43903 1.09375 17.5 1.09375C26.561 1.09375 33.9062 8.43937 33.9062 17.5C33.9062 26.5609 26.561 33.9062 17.5 33.9062Z" fill="#41414A"/>
<path d="M20.9505 26.2863C20.8124 26.2863 20.6743 26.2342 20.5678 26.1299L12.1753 17.9047C12.0704 17.8016 12.0112 17.661 12.0112 17.5139C12.0112 17.367 12.0703 17.2263 12.1752 17.1234L20.5211 8.94262C20.7368 8.73118 21.0831 8.7346 21.2944 8.95028C21.5059 9.16615 21.5024 9.51226 21.2868 9.72362L13.3393 17.5139L21.3333 25.3488C21.5489 25.5602 21.5524 25.9063 21.3411 26.1221C21.2341 26.2314 21.0923 26.2863 20.9505 26.2863Z" fill="#41414A"/>
</svg>
