<svg width="35" height="35" viewBox="0 0 35 35" fill="none" xmlns="http://www.w3.org/2000/svg">
<g clip-path="url(#clip0)">
<path d="M17.5 35C27.1651 35 35 27.1646 35 17.5C35 7.83521 27.1651 -6.84952e-07 17.5 -1.5299e-06C7.83501 -2.37484e-06 2.37482e-06 7.83521 1.5299e-06 17.5C6.84988e-07 27.1646 7.83501 35 17.5 35ZM17.5 1.09375C26.561 1.09375 33.9063 8.4391 33.9063 17.5C33.9063 26.5606 26.561 33.9062 17.5 33.9062C8.43903 33.9062 1.09375 26.5606 1.09375 17.5C1.09375 8.4391 8.43904 1.09375 17.5 1.09375Z" fill="#41414A"/>
<path d="M14.0495 8.71373C14.1876 8.71373 14.3257 8.76576 14.4322 8.87007L22.8247 17.0953C22.9296 17.1984 22.9888 17.339 22.9888 17.4861C22.9888 17.633 22.9297 17.7737 22.8248 17.8766L14.4789 26.0574C14.2632 26.2688 13.9169 26.2654 13.7056 26.0497C13.4941 25.8338 13.4976 25.4877 13.7132 25.2764L21.6607 17.4861L13.6667 9.65121C13.4511 9.43978 13.4476 9.09367 13.6589 8.87786C13.7659 8.76856 13.9077 8.71373 14.0495 8.71373Z" fill="#41414A"/>
</g>
<defs>
<clipPath id="clip0">
<rect width="35" height="35" fill="white" transform="translate(35 35) rotate(-180)"/>
</clipPath>
</defs>
</svg>
