<svg width="175" height="175" viewBox="0 0 175 175" fill="none" xmlns="http://www.w3.org/2000/svg">
<rect width="175" height="175" rx="20" fill="white"/>
<g clip-path="url(#clip0)">
<path fill-rule="evenodd" clip-rule="evenodd" d="M134.868 92.8394L134.587 76.7719H139.704V97.0351H132.346L127.242 80.4076H127.127L127.413 97.0351H122.335V76.7719H130.004L134.755 92.8394H134.868ZM41.7303 78.6589L38.9113 97.2281H33.3444L37.1609 76.7719H46.3323L50.1277 97.2281H44.5942L41.8448 78.6589H41.7303ZM65.7924 92.4126L68.351 76.7719H76.7953L77.2542 97.2281H72.0709L71.9383 78.8318L71.8262 78.837L68.3662 97.2281H63.1147L59.6511 78.8318H59.5363L59.4056 97.2281H54.226L54.6852 76.7719H63.1315L65.68 92.4126H65.7924ZM24.6108 91.4569C23.5468 88.8195 16.191 87.6128 15.2956 83.4464C15.0722 82.4171 15.0942 81.6009 15.2431 80.7022C15.7963 77.3751 18.8004 76.1732 22.4802 76.1732C25.4116 76.1732 29.4618 76.8676 29.4618 81.3116V82.7361H24.2947V81.4788C24.2947 80.3693 23.5866 79.633 22.3714 79.633C21.0781 79.633 20.6295 80.3473 20.4783 81.0014C20.4262 81.2354 20.4039 81.6504 20.5025 82.0673C21.09 84.462 28.9428 85.7256 29.82 89.9976C29.9067 90.4284 30.0943 91.5827 29.8412 93.3475C29.3453 96.7479 26.2709 98.0001 22.5204 98.0001C18.6332 98.0001 15 96.6328 15 92.0872V90.5087H20.5509L20.5546 92.4895C20.5546 93.6001 21.3447 94.3283 22.6369 94.3283C24.0174 94.3283 24.4842 93.6338 24.6529 92.9691C24.7478 92.5844 24.8152 91.9483 24.6108 91.4569ZM91.9192 91.4163C90.8589 88.8086 83.5775 87.6129 82.6881 83.4842C82.4677 82.4667 82.4901 81.6582 82.642 80.7657C83.1844 77.4632 86.1609 76.2895 89.8064 76.2895C92.7036 76.2895 96.7147 76.9759 96.7147 81.3729V82.7798H91.6013V81.5317C91.6013 80.4405 90.8972 79.7116 89.6958 79.7116C88.4144 79.7116 87.971 80.4196 87.8251 81.0708C87.7767 81.2985 87.7484 81.7099 87.85 82.1191C88.4245 84.4878 96.2017 85.741 97.0688 89.9669C97.1552 90.3988 97.3406 91.5421 97.09 93.287C96.603 96.6567 93.5551 97.8902 89.8489 97.8902C85.9949 97.8902 82.3948 96.5427 82.3948 92.0367L82.3985 90.478H87.8973L87.8992 92.4389C87.8992 93.5426 88.675 94.258 89.9594 94.258C91.3254 94.258 91.7922 93.5862 91.9583 92.9145C92.054 92.531 92.1124 91.9051 91.9192 91.4163ZM109.292 94.148C110.731 94.148 111.178 93.1859 111.279 92.6788C111.325 92.4588 111.332 92.1614 111.329 91.8978V76.8212H116.578V91.4321C116.582 91.8105 116.542 92.5787 116.519 92.7807C116.159 96.5812 113.099 97.8107 109.292 97.8107C105.488 97.8107 102.429 96.5812 102.071 92.7807C102.055 92.5787 102.013 91.8105 102.023 91.4321V76.8212H107.256V91.8978C107.253 92.1614 107.263 92.4588 107.307 92.6788C107.409 93.1859 107.856 94.148 109.292 94.148ZM152.483 93.9398C153.977 93.9398 154.502 93.0107 154.598 92.4654C154.638 92.2348 154.652 91.9484 154.646 91.6888V88.7342H152.527V85.7521H159.851V91.2221C159.849 91.6045 159.844 91.8868 159.787 92.5685C159.442 96.278 156.167 97.6065 152.502 97.6065C148.834 97.6065 145.562 96.278 145.222 92.5685C145.162 91.8868 145.153 91.6045 145.15 91.2221L145.153 82.6439C145.153 82.2772 145.198 81.6374 145.239 81.3103C145.699 77.4853 148.834 76.2705 152.505 76.2705C156.174 76.2705 159.393 77.4754 159.775 81.3103C159.834 81.9458 159.811 82.6439 159.814 82.6439V83.3237H154.598V82.1775C154.598 82.1775 154.594 81.6939 154.532 81.4104C154.437 80.9616 154.045 79.9262 152.462 79.9262C150.96 79.9262 150.516 80.9063 150.401 81.4104C150.341 81.6682 150.317 82.0316 150.317 82.3656V91.6888C150.315 91.9484 150.327 92.2348 150.363 92.4654C150.463 93.0107 150.985 93.9398 152.483 93.9398Z" fill="#41414A"/>
</g>
<defs>
<clipPath id="clip0">
<rect width="145" height="22" fill="white" transform="translate(15 76)"/>
</clipPath>
</defs>
</svg>
