<svg width="175" height="175" viewBox="0 0 175 175" fill="none" xmlns="http://www.w3.org/2000/svg">
<rect width="175" height="175" rx="20" fill="white"/>
<path fill-rule="evenodd" clip-rule="evenodd" d="M56.2041 95.3558L66.8262 79.9695C67.244 79.3817 67.679 78.9825 67.679 78.9825V78.9201C67.679 78.9201 67.0943 79.0138 66.5163 79.0138H58.8929V82.2317H56.3478V76.6094H71.2086V78.509L60.5892 93.9252C60.1787 94.5023 59.745 94.9108 59.745 94.9108V94.9693C59.745 94.9693 60.327 94.8823 60.905 94.8823H68.9714V91.5434H71.5013V97.2886H56.2041V95.3558Z" fill="#41414A"/>
<path fill-rule="evenodd" clip-rule="evenodd" d="M77.5459 95.0017H80.1241V78.8562H77.5459V76.61H85.6368V78.8562H83.038V95.0017H85.6368V97.2851H77.5459V95.0017Z" fill="#41414A"/>
<path fill-rule="evenodd" clip-rule="evenodd" d="M91.624 95.0017H94.1864V78.8562H91.624V76.61H99.3501V78.8562H97.1082V85.3592H99.7665L104.261 78.8562H102.36V76.61H109.349V78.8562H107.361L102.01 86.3362V86.3893C102.01 86.3893 102.597 86.6543 103.178 87.7668L106.884 94.2452C107.214 94.7978 107.622 95.0017 108.346 95.0017H109.31V97.2851H107.246C105.52 97.2851 105.019 96.8747 104.374 95.7323L100.409 88.5818C100.063 87.9993 99.6434 87.7668 98.8038 87.7668H97.1082V95.0017H99.6434V97.2851H91.624V95.0017Z" fill="#41414A"/>
<path fill-rule="evenodd" clip-rule="evenodd" d="M118.244 95.0017H120.851V79.015H116.002V82.2302H113.46V76.61H131.153V82.2302H128.613V79.015H123.773V95.0017H126.371V97.2851H118.244V95.0017Z" fill="#41414A"/>
<path fill-rule="evenodd" clip-rule="evenodd" d="M144.947 95.0304C149.121 95.0304 152.508 91.4658 152.508 86.7993C152.508 82.2902 149.121 78.8305 144.947 78.8305C140.738 78.8305 137.353 82.2902 137.353 86.7993C137.353 91.4658 140.738 95.0304 144.947 95.0304ZM144.947 76.2581C150.895 76.2581 155.543 80.8529 155.543 86.7993C155.543 92.8924 150.895 97.6393 144.947 97.6393C138.955 97.6393 134.34 92.8924 134.34 86.7993C134.34 80.8529 138.955 76.2581 144.947 76.2581Z" fill="#41414A"/>
<path fill-rule="evenodd" clip-rule="evenodd" d="M28.8531 87.3975V99.5911L16.7042 87.3975H28.8531ZM28.8531 77.9708V86.5061H20.3087L28.8531 77.9708ZM32.8277 86.5061V87.3975H41.3357L32.8098 95.976V74.3398L44.9362 86.5061H32.8277ZM30.8209 71.0826L15 86.9525L30.8209 102.826L46.6431 86.9525L30.8209 71.0826Z" fill="#41414A"/>
<path fill-rule="evenodd" clip-rule="evenodd" d="M157.919 95.483H157.615V94.967H157.934C158.1 94.967 158.2 94.9696 158.233 94.9729C158.301 94.9849 158.351 95.0121 158.387 95.054C158.424 95.0965 158.443 95.1509 158.443 95.22C158.443 95.2791 158.429 95.3309 158.402 95.3728C158.373 95.4133 158.334 95.4418 158.285 95.4585C158.237 95.4737 158.115 95.483 157.919 95.483ZM158.549 95.9294C158.491 95.8669 158.417 95.8111 158.329 95.7593C158.508 95.7334 158.641 95.671 158.73 95.5714C158.819 95.4711 158.865 95.3455 158.865 95.1928C158.865 95.0732 158.834 94.9656 158.775 94.8733C158.717 94.7783 158.638 94.7139 158.54 94.6787C158.442 94.6408 158.284 94.6229 158.068 94.6229H157.207V96.6573H157.615V95.8071H157.698C157.793 95.8071 157.861 95.8151 157.905 95.8291C157.948 95.8463 157.989 95.8736 158.028 95.9147C158.065 95.9566 158.138 96.0549 158.244 96.2136L158.539 96.6573H159.029L158.781 96.2601C158.683 96.102 158.607 95.9918 158.549 95.9294ZM158.013 97.3235C157.115 97.3215 156.387 96.5935 156.386 95.6916C156.387 94.7916 157.115 94.0623 158.013 94.0597C158.911 94.0623 159.637 94.7916 159.637 95.6916C159.637 96.5935 158.911 97.3215 158.013 97.3235ZM158.013 93.7449C156.94 93.7449 156.071 94.6163 156.071 95.6916C156.071 96.7675 156.94 97.6389 158.013 97.6389C159.085 97.6389 159.953 96.7675 159.953 95.6916C159.953 94.6163 159.085 93.7449 158.013 93.7449Z" fill="#41414A"/>
</svg>
